<svg width="780" height="500" viewBox="0 0 780 500" fill="none" xmlns="http://www.w3.org/2000/svg">
<rect width="780" height="500" rx="40" fill="#1677FF"/>
<path d="M390 100C310.5 100 246 164.5 246 244C246 323.5 310.5 388 390 388C469.5 388 534 323.5 534 244C534 164.5 469.5 100 390 100ZM475.2 310.4C475.2 310.4 452.4 298.4 420 285.6C404.4 306.8 381.6 320.8 355.2 320.8C320.4 320.8 296.4 299.2 296.4 272C296.4 244.8 318 224 354 224C366 224 379.2 226.4 393.6 231.2C396 222.4 397.6 212.8 398.4 202.4H330V192H392.4V176H330V166H392.4C392.4 166 392.4 153.6 392.4 148H415.2C415.2 148 415.2 166 415.2 166H478.8V176H415.2V192H472.8V202.4H421.2C420 216 417.6 228.8 414 240.8C436.8 250.4 475.2 268.8 475.2 268.8V310.4ZM354 308C378 308 397.2 292 409.2 270.4C385.2 262.4 364.8 258.4 354 258.4C332.4 258.4 319.2 268.8 319.2 281.2C319.2 293.6 332.4 308 354 308Z" fill="white"/>
</svg>
