<svg xmlns="http://www.w3.org/2000/svg" viewBox="0 0 50 35" width="50" height="35">
  <rect width="50" height="35" rx="4" fill="#006FCF"/>
  <path d="M9 21.5l-1.5-4h-.8l1.9 5h.8l1.9-5h-.8l-1.5 4zm4.2-4h-.7v5h2.5v-.7h-1.8v-4.3zm5.2 2.5c.4-.2.7-.5.7-1 0-.9-.6-1.5-1.7-1.5h-1.7v5h.8v-2h.6l1.1 2h.9l-1.2-2.1c.2-.1.4-.2.5-.4zm-1.2-.3h-.8v-1.5h.8c.5 0 .9.3.9.7 0 .5-.4.8-.9.8zm7.2-2.2h-.8l-1.1 3.5-1.1-3.5h-.8l1.5 5h.8l1.5-5zm2.4 0h-.7v5h2.5v-.7h-1.8v-4.3zm5.2 2.5c.4-.2.7-.5.7-1 0-.9-.6-1.5-1.7-1.5h-1.7v5h.8v-2h.6l1.1 2h.9l-1.2-2.1c.2-.1.4-.2.5-.4zm-1.2-.3h-.8v-1.5h.8c.5 0 .9.3.9.7 0 .5-.4.8-.9.8zm7.7-2.2h-3v5h3v-.7h-2.3v-1.4h2.2v-.7h-2.2v-1.5h2.3v-.7zm3 5h.8v-3.2l1.6 3.2h.5l1.6-3.2v3.2h.8v-5h-1l-1.7 3.3-1.7-3.3h-1v5z" fill="#fff"/>
  <text x="25" y="14" text-anchor="middle" fill="#fff" font-size="6" font-weight="bold" font-family="Arial">AMEX</text>
</svg>
