<svg width="780" height="500" viewBox="0 0 780 500" fill="none" xmlns="http://www.w3.org/2000/svg">
<rect width="780" height="500" rx="40" fill="#000000"/>
<path d="M233.043 161.039C240.244 152.238 245.107 140.636 243.87 128.835C233.662 129.435 221.261 135.835 213.819 144.636C207.237 152.238 201.256 164.239 202.712 175.64C214.058 176.44 225.624 169.84 233.043 161.039Z" fill="white"/>
<path d="M243.721 178.04C228.505 177.24 215.476 186.84 208.096 186.84C200.697 186.84 189.581 178.64 177.396 178.84C161.741 179.04 147.324 187.84 139.525 201.64C123.461 229.24 135.424 271.24 151.047 293.84C158.666 305.04 167.704 317.44 179.671 317.04C191.218 316.64 195.844 309.44 209.643 309.44C223.242 309.44 227.449 317.04 239.634 316.84C252.039 316.64 259.857 305.44 267.477 294.24C276.115 281.44 279.703 269.04 279.923 268.24C279.484 268.04 258.419 259.64 258.2 235.24C257.981 214.84 274.704 205.24 275.362 204.64C265.981 190.84 251.341 178.84 243.721 178.04Z" fill="white"/>
<text x="340" y="280" font-family="SF Pro Display, -apple-system, Helvetica, Arial, sans-serif" font-size="120" font-weight="600" fill="white">Pay</text>
</svg>
