<svg width="780" height="500" viewBox="0 0 780 500" fill="none" xmlns="http://www.w3.org/2000/svg">
<g clip-path="url(#clip0_mc)">
<path d="M40 0H740C762.092 0 780 17.909 780 40V460C780 482.092 762.092 500 740 500H40C17.909 500 0 482.092 0 460V40C0 17.909 17.909 0 40 0Z" fill="#253747"/>
<path d="M465.738 69.1387H313.812V342.088H465.738V69.1387Z" fill="#FF5A00"/>
<path d="M323.926 205.613C323.926 150.158 349.996 100.94 390 69.1387C360.559 45.9902 323.42 32 282.91 32C186.945 32 109.297 109.648 109.297 205.613C109.297 301.578 186.945 379.227 282.91 379.227C323.42 379.227 360.559 365.237 390 342.088C349.94 310.737 323.926 261.069 323.926 205.613Z" fill="#EB001B"/>
<path d="M670.711 205.613C670.711 301.578 593.062 379.227 497.098 379.227C456.588 379.227 419.449 365.237 390.008 342.088C430.518 310.231 456.082 261.069 456.082 205.613C456.082 150.158 430.012 100.94 390.008 69.1387C419.393 45.9902 456.532 32 497.041 32C593.062 32 670.711 110.154 670.711 205.613Z" fill="#F79E1B"/>
</g>
<defs>
<clipPath id="clip0_mc">
<rect width="780" height="500" fill="white"/>
</clipPath>
</defs>
</svg>
