<svg xmlns="http://www.w3.org/2000/svg" viewBox="0 0 50 35" width="50" height="35">
  <rect width="50" height="35" rx="4" fill="#1A1F71"/>
  <path d="M21.5 23h-2.9l1.8-11h2.9l-1.8 11zm-5.4 0l-2.8-7.6-.3-1.6c-.2-.5-.5-.8-1.1-.8h-4.6l-.1.4c1.1.3 2.2.7 3.2 1.2l2.7 8.4h2.9l4.4-11h-2.9l-1.4 11zm16.3.2c1 0 2-.2 2.8-.5l.5-2.1c-.8.3-1.7.5-2.6.5-1.5 0-2.4-.8-2.4-2 0-2.1 1.6-3.3 3.5-3.3.8 0 1.5.1 2.1.4l.5-2c-.7-.3-1.6-.4-2.5-.4-3 0-5.2 1.7-5.2 4.6 0 2.3 1.5 4.8 4.3 4.8zm9.8-7.5c0-.7-.4-1.3-1.2-1.3-.9 0-1.5.5-1.8 1.3h3zm2.1 3.5c-.6.2-1.5.4-2.4.4-1.3 0-2.4-.5-2.4-1.8h5.4c0-.2 0-.5.1-.8 0-2.2-1.2-3.8-3.6-3.8-2.6 0-4.2 2.1-4.2 4.6 0 2.5 1.7 4.4 4.7 4.4 1 0 2-.2 2.8-.5l-.4-2.5z" fill="#fff"/>
</svg>
