<svg width="780" height="500" viewBox="0 0 780 500" fill="none" xmlns="http://www.w3.org/2000/svg">
<rect width="780" height="500" rx="40" fill="#07C160"/>
<path d="M442.8 180.4C442.8 180.4 442 180 441.6 180C399.2 155.6 340 159.6 304 195.6C268 231.6 268.4 287.6 305.2 323.2C305.2 323.2 308 326 308 328C308 330 304.4 342.4 302 350C301.2 352.4 302.8 354.8 305.2 354C314 350.8 330.4 344 336.8 340.4C339.2 339.2 341.2 338.8 343.6 339.2C359.6 342.8 377.2 343.6 395.2 340.4C395.2 340.4 388 328.4 385.2 316C384.8 314 385.6 312 387.2 310.8C420.8 286 438.4 248 442.8 210C443.6 200 443.6 190 442.8 180.4Z" fill="white"/>
<path d="M504 224C504 224 502 222.8 501.2 222.4C466.4 202.8 418 206 388.4 235.6C358.8 265.2 359.2 312.4 389.6 341.6C389.6 341.6 392 344 392 345.6C392 347.2 389.2 357.2 387.2 363.6C386.4 365.6 387.6 367.6 389.6 367.2C396.8 364.4 410.4 358.8 415.6 355.6C417.6 354.8 419.2 354.4 421.2 354.8C434 358 448 358.4 462.4 356C480 352.4 495.6 344.4 508 332.4C533.6 307.6 540 270.4 525.2 240C518.8 228.4 510 224.4 504 224Z" fill="white" fill-opacity="0.7"/>
<circle cx="340" cy="260" r="14" fill="#07C160"/>
<circle cx="400" cy="260" r="14" fill="#07C160"/>
<circle cx="430" cy="300" r="11" fill="#07C160" fill-opacity="0.7"/>
<circle cx="480" cy="300" r="11" fill="#07C160" fill-opacity="0.7"/>
</svg>
