<svg width="375" height="39" viewBox="0 0 375 39" fill="none" xmlns="http://www.w3.org/2000/svg">
<path d="M34.4446 2.71133C32.76 3.27529 32.3045 3.73802 31.7333 5.42266C31.1693 3.73802 30.7066 3.28252 29.022 2.71133C30.7066 2.14737 31.1621 1.68464 31.7333 0C32.2973 1.68464 32.76 2.14014 34.4446 2.71133Z" fill="#B2BBBF"/>
<path d="M14.7639 28.0243C14.0843 27.8942 13.5058 27.5399 13.0937 27.041L12.1899 28.3063C12.7973 28.9136 13.5854 29.3475 14.4892 29.521C15.3929 29.6945 16.2895 29.5644 17.0703 29.2173L16.6799 27.7062C16.1159 28.0171 15.4508 28.1472 14.7639 28.0171V28.0243Z" fill="#B2BBBF"/>
<path d="M33.259 8.60383C32.8541 8.08325 32.1962 7.30239 31.7407 6.83242C31.7407 6.83242 29.145 8.95088 27.0193 11.0476C26.8819 10.8597 26.7373 10.6717 26.5927 10.4909C26.5783 10.4765 26.5638 10.4548 26.5494 10.4403C26.4915 10.368 26.4264 10.2957 26.3686 10.2234C26.3541 10.2017 26.3325 10.18 26.318 10.1656C26.2529 10.0933 26.1878 10.021 26.1228 9.94865C26.1083 9.93419 26.1011 9.92696 26.0866 9.9125C24.2863 7.94588 21.8642 6.56491 19.1384 6.06602C18.4154 5.93588 17.6707 5.86358 16.9042 5.86358C15.4004 5.86358 13.9254 6.13109 12.53 6.65167L13.2168 8.47368C13.3398 8.4303 13.4699 8.37969 13.5928 8.34354C14.6557 7.98926 15.7691 7.8085 16.9115 7.8085C16.991 7.8085 17.0633 7.8085 17.1428 7.8085C17.1718 7.8085 17.2079 7.8085 17.2368 7.8085C17.2368 7.8085 17.2513 7.8085 17.2585 7.8085C19.9843 7.89527 22.4498 9.03041 24.2718 10.8163C24.3369 10.8813 24.4092 10.9536 24.4743 11.0187C24.6189 11.1706 24.7563 11.3224 24.8936 11.4815C25.1684 11.8068 25.4287 12.1394 25.6673 12.5009C25.2841 12.9492 24.9298 13.4047 24.6117 13.8602C23.9609 14.7784 23.4259 15.7111 23.021 16.6511C22.298 18.3068 21.9799 19.9914 22.0088 21.6905C22.0666 24.7851 22.9993 26.6577 24.9298 26.6215C25.7613 26.6071 26.5277 26.1805 27.1495 25.4141C28.2557 24.0548 29.3764 20.8807 29.3764 18.3068C29.3764 16.3112 28.9064 14.4314 28.0677 12.7612C29.2318 11.561 31.6394 9.55822 31.6394 9.55822C32.2251 10.3535 32.9409 11.4815 33.3964 12.3852C34.5894 14.7061 35.2256 17.2945 35.2256 19.9842C35.2256 24.4235 33.4976 28.6026 30.3525 31.7405C27.2145 34.8784 23.0355 36.6137 18.5961 36.6137C14.1568 36.6137 9.9777 34.8857 6.83979 31.7405C3.70187 28.6026 1.96662 24.4235 1.96662 19.9842C1.96662 18.4442 2.1763 16.9403 2.57396 15.5015C2.75471 14.8652 2.96439 14.2362 3.21745 13.6216C3.49943 12.9347 3.83202 12.2695 4.20799 11.6261C4.22968 11.6333 4.24414 11.6405 4.26583 11.6477C5.13345 12.0237 6.08061 12.1683 7.08561 12.1683H7.10007C7.15792 12.1683 7.36036 12.1683 7.36036 12.1683C8.53166 12.1322 9.42097 11.8068 9.99939 11.185C10.491 10.6572 10.7224 9.97034 10.6646 9.19671C10.6573 9.09548 10.6429 9.00149 10.6212 8.9075C10.4838 8.22063 10.05 7.63498 9.40651 7.27347C9.17515 7.14332 8.92209 7.04933 8.6618 6.97703C8.55335 6.94811 8.43766 6.92642 8.32198 6.91196C7.5122 6.79627 6.61565 6.95534 5.76248 7.39638C5.01054 7.77958 4.21522 8.30739 3.64403 8.95811C2.61011 8.01818 1.95939 6.6589 1.95939 5.15501C1.95939 4.61275 2.04615 4.09217 2.19799 3.60052C2.68964 3.44868 3.21022 3.36192 3.75248 3.36192C5.25637 3.36192 6.61565 4.01264 7.55558 5.04656C8.08338 4.65613 8.63288 4.29462 9.19684 3.96203C7.8954 2.40753 5.94324 1.41699 3.75248 1.41699C3.69464 1.41699 3.6368 1.41699 3.57173 1.41699C2.54504 1.44591 1.56896 1.68451 0.694101 2.10386C0.274748 2.96426 0.0289209 3.94034 0 4.96703C0 5.02487 0 5.08271 0 5.14778C0 7.33854 0.99054 9.2907 2.54504 10.5921C2.0823 11.373 1.67741 12.1972 1.33759 13.0504C1.27975 13.2022 1.22191 13.3468 1.16407 13.4987C1.10622 13.6433 1.05561 13.7951 1.005 13.9397C1.005 13.9397 1.005 13.947 1.005 13.9542C0.903777 14.2579 0.802554 14.5615 0.715792 14.8724C0.715792 14.8869 0.708561 14.9013 0.701331 14.923C0.245827 16.5281 0.00723022 18.2272 0.00723022 19.977C0.00723022 30.2366 8.32198 38.5514 18.5817 38.5514C28.8413 38.5514 37.1561 30.2366 37.1561 19.977C37.1561 15.6894 35.7028 11.7417 33.259 8.5966V8.60383ZM26.7229 22.0376C26.4192 22.8474 26.1517 23.7005 25.5154 24.3296C25.0238 24.8212 24.3731 24.5681 24.214 24.0982C23.9682 23.3824 23.932 22.4497 23.932 21.5025C23.932 19.1093 24.8069 16.7161 26.6361 14.3663C26.8675 14.858 27.4098 16.9547 27.4098 18.3068C27.4098 19.6588 27.1639 20.859 26.7157 22.0376H26.7229ZM6.63734 9.1244C7.44712 8.71228 8.11953 8.77735 8.44489 8.96534C8.66903 9.08825 8.69795 9.23286 8.71241 9.33408C8.76302 9.64498 8.61119 9.80404 8.56781 9.84742C8.33644 10.0933 7.8014 10.2306 7.09284 10.2234C6.53612 10.2234 5.7914 10.1294 5.29975 9.97757C5.66126 9.60883 6.25414 9.32685 6.63734 9.13163V9.1244Z" fill="#B2BBBF"/>
<path d="M59.3529 13.0504C58.7961 12.7178 58.1816 12.4286 57.5381 12.1972C56.9091 11.9731 56.309 11.7128 55.7667 11.4236C55.2317 11.1416 54.7761 10.7873 54.4219 10.3752C54.0748 9.97754 53.9013 9.42081 53.9013 8.71225C53.9013 8.30736 53.9736 7.92416 54.1182 7.58434C54.2628 7.24452 54.4653 6.94085 54.7255 6.69502C54.9858 6.4492 55.2967 6.25398 55.651 6.12384C56.0053 5.98646 56.3957 5.92139 56.8223 5.92139C57.2489 5.92139 57.6032 5.99369 57.8996 6.13107C58.2033 6.27567 58.4636 6.4492 58.6805 6.65887C58.8974 6.86855 59.0709 7.09991 59.201 7.34574C59.3312 7.5988 59.4396 7.8374 59.5119 8.0543L59.5481 8.1483H60.047L60.7483 5.97923L60.6543 5.90693C60.1699 5.5165 59.6349 5.22729 59.0709 5.0393C58.5069 4.85132 57.8273 4.75732 57.0609 4.75732C56.2945 4.75732 55.5281 4.87301 54.8846 5.09714C54.2411 5.32128 53.6772 5.64664 53.2144 6.05153C52.7517 6.45643 52.3902 6.94808 52.1444 7.51204C51.8985 8.06876 51.7756 8.69779 51.7756 9.37743C51.7756 10.3318 51.9708 11.1127 52.354 11.6839C52.7372 12.2478 53.2144 12.725 53.7784 13.0865C54.3351 13.448 54.9497 13.7517 55.5932 13.9903C56.2222 14.2217 56.8223 14.482 57.3646 14.7639C57.8996 15.0387 58.3479 15.3857 58.7094 15.7979C59.0564 16.1955 59.23 16.745 59.23 17.4319C59.23 17.8874 59.1504 18.3212 58.9986 18.7189C58.8468 19.1165 58.6299 19.4708 58.3551 19.76C58.0804 20.0565 57.7333 20.2878 57.3356 20.4614C56.938 20.6349 56.4825 20.7216 55.9836 20.7216C55.4847 20.7216 55.0509 20.6493 54.6605 20.5047C54.2628 20.3601 53.9158 20.1721 53.6193 19.948C53.3229 19.7166 53.0698 19.4636 52.8674 19.1816C52.6649 18.8996 52.4986 18.6177 52.3757 18.3429L52.3396 18.2561H51.8335L51.3418 20.5481L51.4213 20.6132C51.8407 20.953 52.3613 21.2567 52.9831 21.5242C53.6049 21.7917 54.4219 21.9291 55.4196 21.9291C56.3451 21.9291 57.191 21.7917 57.9213 21.5314C58.6588 21.2639 59.2878 20.8807 59.7939 20.3891C60.3 19.8974 60.6977 19.3118 60.9652 18.6466C61.2327 17.9886 61.3629 17.2728 61.3629 16.5353C61.3629 15.6388 61.1677 14.9086 60.7772 14.3663C60.394 13.8312 59.9168 13.3902 59.3456 13.0504H59.3529Z" fill="#757574"/>
<path d="M78.4117 20.0132C78.0791 19.2757 77.7103 18.437 77.3055 17.4971C76.8933 16.5571 76.4595 15.5449 75.9968 14.4531C75.5341 13.3614 75.0641 12.2624 74.6014 11.1562C74.1386 10.0499 73.6759 8.95094 73.2276 7.87364C72.7793 6.78911 71.9406 4.76465 71.9406 4.76465H71.2971L71.261 4.85141C70.0174 7.70735 68.7593 10.5561 67.5302 13.3252C66.2938 16.1089 65.0141 18.9286 63.7271 21.6978L63.6187 21.9292H65.7371L65.7805 21.799C65.9902 21.0688 66.3011 20.1289 66.7132 19.0082C67.1181 17.902 67.5736 16.7307 68.0725 15.5232C68.5352 15.5088 68.9979 15.4943 69.4462 15.4871C69.9234 15.4798 70.4151 15.4726 70.9139 15.4726C71.4417 15.4726 71.9696 15.4726 72.4974 15.4871C72.9962 15.4943 73.4807 15.5088 73.9651 15.5232C74.1675 16.0293 74.3772 16.5571 74.6086 17.1066C74.8472 17.6923 75.0858 18.2707 75.3171 18.8419C75.5485 19.4058 75.7654 19.9553 75.9534 20.4759C76.1414 20.9893 76.2932 21.4303 76.4089 21.8063L76.4523 21.9509H79.3588L79.2215 21.6978C79.019 21.3218 78.7443 20.7579 78.4189 20.0204L78.4117 20.0132ZM71.0224 14.1712C70.603 14.1712 70.1692 14.1639 69.7282 14.1495C69.3522 14.135 68.9835 14.1278 68.6437 14.1278L71.0513 8.51713L73.5024 14.135C73.1264 14.1495 72.7432 14.1567 72.3672 14.1639C71.9189 14.1712 71.4707 14.1784 71.0224 14.1784V14.1712Z" fill="#757574"/>
<path d="M85.6346 8.11215C85.678 7.07822 85.7214 6.01538 85.772 4.93808V4.75732H83.0679V4.93808C83.1257 6.01538 83.1691 7.07099 83.2125 8.11215C83.2559 9.1533 83.2703 10.2161 83.2703 11.279V15.4942C83.2703 16.557 83.2486 17.6271 83.2125 18.6755C83.1691 19.7239 83.1257 20.7506 83.0751 21.7628V21.9291H85.7792V21.7628C85.7214 20.7506 85.678 19.7239 85.6346 18.6755C85.5912 17.6416 85.5768 16.5715 85.5768 15.4942V11.279C85.5768 10.2017 85.5984 9.13884 85.6346 8.11215Z" fill="#757574"/>
<path d="M108.634 5.09001C107.767 4.8731 106.798 4.76465 105.749 4.76465C104.426 4.76465 103.204 4.95986 102.105 5.34307C100.999 5.72627 100.045 6.29745 99.2494 7.02771C98.4541 7.76519 97.8323 8.6762 97.3913 9.73904C96.9502 10.8019 96.7261 12.0238 96.7261 13.3831C96.7261 14.7423 96.9502 15.9643 97.3913 17.0271C97.8323 18.0899 98.4469 19.0009 99.2277 19.7384C100.001 20.4759 100.941 21.0326 102.019 21.3941C103.089 21.7557 104.267 21.9364 105.525 21.9364C106.118 21.9364 106.689 21.8858 107.232 21.7918C107.774 21.6978 108.265 21.5894 108.699 21.4665C109.14 21.3435 109.524 21.2062 109.834 21.0543C110.16 20.8953 110.391 20.7507 110.543 20.6205L110.579 20.5844L110.811 19.066L110.579 18.8347L110.478 18.9142C110.261 19.0877 109.986 19.2902 109.668 19.5143C109.35 19.7384 108.989 19.9481 108.598 20.1433C108.208 20.3385 107.767 20.5048 107.297 20.6422C106.827 20.7796 106.313 20.8519 105.764 20.8519C104.853 20.8519 104 20.7 103.219 20.4108C102.445 20.1216 101.766 19.6661 101.187 19.0588C100.609 18.4515 100.153 17.6706 99.8351 16.7379C99.5097 15.8052 99.3434 14.6773 99.3434 13.3831C99.3434 12.0889 99.5097 10.9682 99.8351 10.0282C100.16 9.09555 100.616 8.31468 101.187 7.70735C101.758 7.10001 102.445 6.6445 103.219 6.3553C104 6.06609 104.853 5.91425 105.764 5.91425C106.313 5.91425 106.827 5.98655 107.282 6.13116C107.745 6.27576 108.164 6.46375 108.533 6.67343C108.902 6.89033 109.234 7.11447 109.509 7.34584C109.784 7.5772 110.001 7.78688 110.153 7.96763L110.218 8.03994L110.529 7.93871L110.543 7.85918C110.594 7.60612 110.651 7.29522 110.731 6.91202C110.803 6.55051 110.905 6.2613 111.02 6.05163L111.1 5.91425L110.955 5.84918C110.29 5.54551 109.509 5.28522 108.641 5.06832L108.634 5.09001Z" fill="#757574"/>
<path d="M124.389 20.2084L124.172 20.2373C122.957 20.3964 121.808 20.4904 120.752 20.5193C119.74 20.541 118.67 20.5554 117.564 20.5554C117.549 19.3986 117.535 18.0899 117.513 16.6439C117.499 15.1545 117.491 13.3541 117.491 11.2863C117.491 10.209 117.513 9.14616 117.549 8.11947C117.593 7.07832 117.636 6.02271 117.687 4.9454V4.76465H114.982V4.9454C115.04 6.02271 115.084 7.08555 115.127 8.11947C115.17 9.16062 115.185 10.2235 115.185 11.2863V15.5015C115.185 16.5644 115.163 17.6344 115.127 18.6828C115.084 19.7312 115.04 20.7579 114.99 21.7701V21.9292H115.141C115.908 21.9003 116.674 21.8786 117.405 21.8786H121.931C122.683 21.8786 123.442 21.893 124.179 21.9292H124.389V20.2084Z" fill="#757574"/>
<path d="M148.017 4.76465L148.032 4.95263C148.111 6.34084 148.162 8.09778 148.184 9.65228C148.205 11.214 148.22 12.848 148.22 14.4965V17.3741C147.555 16.7017 146.781 15.8992 145.913 14.9809C144.945 13.947 143.918 12.848 142.833 11.6912C141.749 10.5344 140.664 9.35584 139.565 8.16285C138.466 6.96986 137.44 5.85641 136.471 4.80803L136.427 4.76465H135.835V4.91648C135.871 5.44429 135.892 6.2613 135.9 7.34584C135.907 8.4376 135.914 9.73904 135.914 11.2502C135.914 11.7563 135.907 12.3419 135.892 13.0216C135.878 13.6867 135.856 14.3664 135.835 15.0605C135.813 15.7329 135.777 16.4342 135.741 17.1428C135.704 17.8369 135.668 18.4804 135.632 19.0732C135.603 19.6589 135.567 20.1722 135.524 20.5988C135.487 21.0182 135.451 21.5966 135.422 21.7484L135.386 21.9364H137.432L137.411 21.7557C137.396 21.6327 137.382 21.1049 137.367 20.7579C137.353 20.4036 137.338 19.9915 137.317 19.5143C137.302 19.0371 137.288 18.531 137.266 17.9743C137.252 17.4248 137.237 16.8753 137.23 16.3402L137.208 14.8002C137.201 14.3085 137.194 13.9036 137.194 13.5711C137.194 12.3058 137.201 11.2863 137.215 10.5416C137.23 9.97764 137.237 9.49321 137.252 9.10278C139.233 11.2068 141.228 13.3325 143.18 15.4292C145.227 17.62 147.179 19.7963 148.979 21.8786L149.022 21.9292H149.557V21.0037C149.557 20.6205 149.557 20.1795 149.543 19.6661C149.536 19.1528 149.529 18.6033 149.521 18.0104L149.5 16.2462C149.492 15.6606 149.485 15.1039 149.485 14.5688V13.1445C149.485 12.6817 149.5 12.0672 149.536 11.3297C149.565 10.5705 149.601 9.79688 149.644 9.00879C149.68 8.22069 149.724 7.47598 149.76 6.78188C149.796 6.09501 149.832 5.30691 149.868 4.95986L149.89 4.76465H148.017Z" fill="#757574"/>
<path d="M157.091 8.11215C157.135 7.07822 157.178 6.01538 157.229 4.93808V4.75732H154.524V4.93808C154.582 6.01538 154.626 7.07099 154.669 8.11215C154.712 9.1533 154.727 10.2161 154.727 11.279V15.4942C154.727 16.557 154.705 17.6271 154.669 18.6755C154.626 19.7239 154.582 20.7506 154.532 21.7628V21.9291H157.236V21.7628C157.178 20.7506 157.135 19.7239 157.091 18.6755C157.048 17.6416 157.033 16.5715 157.033 15.4942V11.279C157.033 10.2017 157.055 9.13884 157.091 8.11215Z" fill="#757574"/>
<path d="M130.643 8.11215C130.686 7.07822 130.73 6.01538 130.78 4.93808V4.75732H128.076V4.93808C128.134 6.01538 128.177 7.07099 128.221 8.11215C128.264 9.1533 128.279 10.2161 128.279 11.279V15.4942C128.279 16.557 128.257 17.6271 128.221 18.6755C128.177 19.7239 128.134 20.7506 128.083 21.7628V21.9291H130.788V21.7628C130.73 20.7506 130.686 19.7239 130.643 18.6755C130.6 17.6416 130.585 16.5715 130.585 15.4942V11.279C130.585 10.2017 130.607 9.13884 130.643 8.11215Z" fill="#757574"/>
<path d="M165.088 7.71448C165.659 7.10715 166.346 6.65164 167.119 6.36243C167.9 6.07322 168.753 5.92139 169.664 5.92139C170.214 5.92139 170.727 5.99369 171.183 6.1383C171.645 6.2829 172.065 6.47089 172.434 6.68056C172.802 6.89747 173.135 7.12161 173.41 7.35297C173.684 7.58434 173.901 7.79402 174.053 7.97477L174.118 8.04707L174.429 7.94585L175 5.92862L174.856 5.86355C174.19 5.55988 173.41 5.29959 172.542 5.08268C171.674 4.86578 170.705 4.75732 169.657 4.75732C168.334 4.75732 167.112 4.95254 166.013 5.33574C164.907 5.71894 163.952 6.29013 163.157 7.02038C162.362 7.75786 161.74 8.66887 161.299 9.73171C160.858 10.7946 160.634 12.0165 160.634 13.3757C160.634 14.735 160.858 15.9569 161.299 17.0198C161.74 18.0826 162.355 18.9936 163.135 19.7311C163.909 20.4686 164.849 21.0253 165.926 21.3868C166.996 21.7483 168.175 21.9291 169.433 21.9291C170.026 21.9291 170.597 21.8785 171.139 21.7845C171.682 21.6905 172.173 21.582 172.607 21.4591C173.048 21.3362 173.431 21.1988 173.742 21.047C174.068 20.8879 174.299 20.7433 174.451 20.6132L174.487 20.577L174.718 19.0587L174.487 18.8273L174.386 18.9069C174.169 19.0804 173.894 19.2828 173.576 19.507C173.258 19.7311 172.896 19.9408 172.506 20.136C172.115 20.3312 171.674 20.4975 171.204 20.6349C170.734 20.7723 170.221 20.8446 169.672 20.8446C168.761 20.8446 167.907 20.6927 167.127 20.4035C166.353 20.1143 165.673 19.6588 165.095 19.0515C164.516 18.4441 164.061 17.6633 163.743 16.7306C163.417 15.7979 163.251 14.67 163.251 13.3757C163.251 12.0815 163.417 10.9609 163.743 10.0209C164.068 9.08822 164.524 8.30736 165.095 7.70002L165.088 7.71448Z" fill="#757574"/>
<path d="M74.406 30.0341C74.6229 29.875 74.8181 29.7594 75.0061 29.7015C75.1869 29.6437 75.3749 29.6147 75.5701 29.6147C75.7436 29.6147 75.9027 29.6364 76.0473 29.687C76.1919 29.7377 76.3148 29.81 76.416 29.904C76.5172 29.9979 76.5968 30.1136 76.6546 30.2438C76.7125 30.3739 76.7414 30.5185 76.7414 30.6776C76.7414 30.9523 76.7414 31.2271 76.7269 31.4946C76.7197 31.7694 76.7125 32.0513 76.7125 32.355C76.7125 32.4128 76.7125 32.4707 76.7125 32.5358C76.7125 32.6008 76.7269 32.6587 76.7414 32.7093C76.7631 32.7599 76.792 32.8033 76.8281 32.8322C76.8643 32.8683 76.9149 32.8828 76.9872 32.8828C77.0089 32.8828 77.0378 32.8828 77.0595 32.8828C77.0884 32.8828 77.1101 32.8756 77.1318 32.8611V33.0202C77.0812 33.0419 77.0161 33.0636 76.9366 33.078C76.8571 33.0925 76.7703 33.0997 76.6763 33.0997C76.5245 33.0997 76.4088 33.0636 76.322 32.984C76.2425 32.9045 76.1919 32.8033 76.1774 32.6804C76.0039 32.8539 75.8376 32.984 75.6641 33.0636C75.4906 33.1431 75.2881 33.1865 75.0423 33.1865C74.9194 33.1865 74.8037 33.172 74.688 33.1359C74.5723 33.0997 74.4711 33.0491 74.3843 32.9696C74.2976 32.89 74.2253 32.8033 74.1674 32.6948C74.1096 32.5864 74.0879 32.4635 74.0879 32.3261C74.0879 32.0369 74.1746 31.8127 74.3554 31.6537C74.5362 31.4946 74.782 31.3934 75.1001 31.3355C75.3604 31.2922 75.5629 31.256 75.7075 31.2271C75.8521 31.1982 75.9605 31.162 76.0328 31.1331C76.1051 31.0969 76.1413 31.0608 76.1557 31.0174C76.1702 30.974 76.1774 30.9162 76.1774 30.8439C76.1774 30.721 76.163 30.6053 76.134 30.4968C76.1051 30.3884 76.0617 30.2872 75.9967 30.2076C75.9316 30.1281 75.8521 30.063 75.7508 30.0124C75.6496 29.9618 75.5267 29.9401 75.3821 29.9401C75.1869 29.9401 75.0134 29.9835 74.8471 30.0703C74.6808 30.157 74.5579 30.2799 74.4783 30.4318H74.3988V30.0558L74.406 30.0341ZM76.1847 31.3138C76.1051 31.3428 76.0111 31.3645 75.9027 31.3861C75.7942 31.4078 75.6858 31.4223 75.5773 31.444C75.4689 31.4657 75.3604 31.4946 75.252 31.5235C75.1435 31.5524 75.0495 31.6031 74.9627 31.6609C74.876 31.7187 74.8109 31.791 74.7603 31.8778C74.7097 31.9646 74.688 32.073 74.688 32.2104C74.688 32.4345 74.7531 32.6081 74.8832 32.7237C75.0134 32.8394 75.158 32.8973 75.317 32.8973C75.4978 32.8973 75.6641 32.8467 75.8159 32.7454C75.9677 32.6442 76.0834 32.5285 76.163 32.3911L76.1919 31.3138H76.1847Z" fill="#757574"/>
<path d="M77.8908 30.7934C77.8908 30.5909 77.9269 30.4174 77.9992 30.2728C78.0715 30.1282 78.1728 30.0053 78.2957 29.9113C78.4186 29.8173 78.5704 29.745 78.7367 29.6944C78.903 29.6438 79.0765 29.6221 79.2645 29.6221C79.3585 29.6221 79.4453 29.6221 79.5248 29.6221C79.6116 29.6221 79.7128 29.6365 79.8429 29.6438C79.9514 29.651 80.0526 29.6582 80.1394 29.6654C80.2261 29.6654 80.2984 29.6727 80.349 29.6727C80.6166 29.6727 80.8118 29.6582 80.9347 29.6365C80.9347 29.6582 80.9275 29.6871 80.9275 29.7088C80.9275 29.7378 80.9275 29.7594 80.9275 29.7811C80.9275 29.8028 80.9275 29.8317 80.9275 29.8534C80.9275 29.8824 80.9275 29.904 80.9347 29.9257C80.7973 29.9185 80.6599 29.904 80.5298 29.8968C80.3997 29.8824 80.2695 29.8751 80.1394 29.8751L80.1249 29.8896C80.2767 29.9691 80.3924 30.0993 80.4864 30.2656C80.5804 30.4391 80.6238 30.6126 80.6238 30.7934C80.6238 31.1549 80.5009 31.4369 80.2623 31.6393C80.0165 31.8417 79.6983 31.943 79.2862 31.943C79.2211 31.943 79.1561 31.943 79.091 31.943C79.0259 31.943 78.9609 31.9357 78.8958 31.9357C78.809 31.9357 78.7295 31.9647 78.6572 32.0297C78.5849 32.0948 78.5487 32.1743 78.5487 32.2683C78.5487 32.3912 78.5776 32.4852 78.6355 32.5431C78.6933 32.6009 78.809 32.6298 78.9681 32.6371C79.1055 32.6371 79.2356 32.6443 79.3657 32.6443C79.4959 32.6443 79.626 32.6443 79.7634 32.6515C79.9875 32.6515 80.1755 32.6805 80.3274 32.7311C80.4864 32.7817 80.6093 32.8467 80.7106 32.9263C80.8118 33.0058 80.8841 33.0998 80.9275 33.2083C80.9708 33.3167 80.9998 33.4324 80.9998 33.5553C80.9998 33.7216 80.9636 33.8951 80.9058 34.0687C80.8407 34.2422 80.7395 34.394 80.6021 34.5386C80.4647 34.676 80.2912 34.7917 80.0743 34.8857C79.8574 34.9797 79.5971 35.023 79.2934 35.023C78.8307 35.023 78.462 34.9291 78.1944 34.7483C77.9269 34.5603 77.7896 34.3072 77.7896 33.9891C77.7896 33.8662 77.8112 33.7505 77.8546 33.6421C77.898 33.5336 77.9558 33.4396 78.0281 33.3601C78.1005 33.2806 78.18 33.2155 78.274 33.1649C78.368 33.1143 78.462 33.0781 78.556 33.0564V33.042C78.4041 32.9986 78.2957 32.9263 78.2161 32.8251C78.1366 32.7238 78.1005 32.6009 78.1005 32.4635C78.1005 32.384 78.1149 32.3045 78.1438 32.2394C78.1728 32.1743 78.2161 32.1093 78.2595 32.0587C78.3101 32.008 78.3607 31.9647 78.4258 31.9285C78.4909 31.8924 78.5487 31.8707 78.6066 31.8634V31.849C78.3824 31.755 78.2161 31.6176 78.086 31.4441C77.9631 31.2706 77.898 31.0464 77.898 30.7861L77.8908 30.7934ZM80.443 33.8734C80.443 33.5842 80.3563 33.3818 80.19 33.2661C80.0237 33.1504 79.7417 33.0926 79.3513 33.0926C78.9898 33.0926 78.715 33.1504 78.5198 33.2661C78.3246 33.3818 78.2234 33.5987 78.2234 33.9024C78.2234 34.0687 78.2523 34.206 78.3029 34.3217C78.3607 34.4374 78.433 34.5314 78.527 34.6037C78.621 34.676 78.7295 34.7266 78.8596 34.7628C78.9898 34.7989 79.1271 34.8134 79.279 34.8134C79.4308 34.8134 79.5682 34.7917 79.7056 34.7555C79.8429 34.7194 79.9658 34.6615 80.0743 34.582C80.1828 34.5025 80.2695 34.4085 80.3346 34.2928C80.3997 34.1771 80.4358 34.0325 80.4358 33.8734H80.443ZM80.0526 30.75C80.0526 30.4463 79.9803 30.2149 79.8357 30.0559C79.6911 29.8968 79.5031 29.8173 79.2645 29.8173C79.0042 29.8173 78.8018 29.904 78.6572 30.0776C78.5126 30.2511 78.4403 30.4897 78.4403 30.7789C78.4403 31.0681 78.5053 31.3212 78.6355 31.4947C78.7656 31.6682 78.9753 31.755 79.2501 31.755C79.3874 31.755 79.5103 31.7261 79.6043 31.6755C79.7056 31.6176 79.7851 31.5453 79.8502 31.4513C79.9152 31.3573 79.9658 31.2489 79.9948 31.126C80.0237 31.003 80.0381 30.8729 80.0381 30.7428L80.0526 30.75Z" fill="#757574"/>
<path d="M82.0483 28.4366C82.0483 28.3354 82.0845 28.2486 82.1568 28.1763C82.2291 28.104 82.3159 28.0679 82.4171 28.0679C82.5183 28.0679 82.6051 28.104 82.6774 28.1763C82.7497 28.2486 82.7858 28.3354 82.7858 28.4366C82.7858 28.5378 82.7497 28.6246 82.6774 28.6969C82.6051 28.7692 82.5183 28.8054 82.4171 28.8054C82.3159 28.8054 82.2291 28.7692 82.1568 28.6969C82.0845 28.6246 82.0483 28.5378 82.0483 28.4366ZM82.1496 31.0323C82.1496 30.8154 82.1496 30.5912 82.1423 30.3526C82.1351 30.114 82.1206 29.8899 82.099 29.6874C82.2363 29.7091 82.3375 29.7236 82.4243 29.7236C82.5111 29.7236 82.6123 29.7091 82.7497 29.6874C82.728 29.8971 82.7135 30.114 82.6991 30.3526C82.6991 30.5912 82.6918 30.8154 82.6918 31.0323V31.7842C82.6918 32.0011 82.6918 32.2252 82.6991 32.4638C82.7063 32.7024 82.7207 32.9193 82.7497 33.1073C82.6412 33.1001 82.5328 33.0929 82.4243 33.0929C82.3159 33.0929 82.2074 33.0929 82.099 33.1073C82.1206 32.9121 82.1351 32.7024 82.1423 32.4638C82.1423 32.2252 82.1496 32.0011 82.1496 31.7842V31.0323Z" fill="#757574"/>
<path d="M86.2489 30.2657C86.1116 30.0777 85.9163 29.9909 85.6705 29.9909C85.3379 29.9909 85.0921 30.0921 84.933 30.3018C84.774 30.5115 84.7017 30.8007 84.7017 31.1694V31.784C84.7017 32.0009 84.7017 32.225 84.7089 32.4636C84.7089 32.7022 84.7306 32.9191 84.7523 33.1071C84.6438 33.0999 84.5354 33.0927 84.4269 33.0927C84.3185 33.0927 84.21 33.0927 84.1016 33.1071C84.1233 32.9119 84.1377 32.7022 84.1449 32.4636C84.1522 32.225 84.1594 32.0009 84.1594 31.784V31.0321C84.1594 30.8151 84.1594 30.591 84.1449 30.3524C84.1449 30.1138 84.1233 29.8897 84.1016 29.6872C84.2389 29.7089 84.3474 29.7234 84.4269 29.7234C84.4631 29.7234 84.5065 29.7234 84.5498 29.7162C84.5932 29.7089 84.6511 29.7017 84.7089 29.6945C84.6944 29.8897 84.6872 30.0777 84.6872 30.2729H84.7017C84.839 30.0632 84.9981 29.9041 85.1861 29.7957C85.3741 29.68 85.5982 29.6294 85.8585 29.6294C85.9959 29.6294 86.126 29.6511 86.2634 29.6872C86.4008 29.7234 86.5237 29.7885 86.6321 29.8825C86.7406 29.9764 86.8346 30.1066 86.8997 30.2657C86.972 30.4247 87.0009 30.6344 87.0009 30.8802C87.0009 31.0899 87.0009 31.2996 86.9864 31.5165C86.972 31.7334 86.972 31.9648 86.972 32.2106V32.6805C86.972 32.7601 86.972 32.8324 86.972 32.9047C86.972 32.977 86.972 33.0493 86.9792 33.1144C86.8852 33.1071 86.784 33.0999 86.6755 33.0999C86.5671 33.0999 86.4731 33.0999 86.3791 33.1144C86.3863 32.8613 86.4008 32.6082 86.4152 32.3407C86.4297 32.0732 86.4297 31.8057 86.4297 31.5237V31.0827C86.4297 30.7212 86.3574 30.4536 86.22 30.2657H86.2489Z" fill="#757574"/>
<path d="M88.0709 30.7934C88.0709 30.5909 88.1071 30.4174 88.1794 30.2728C88.2517 30.1282 88.3529 30.0053 88.4758 29.9113C88.5988 29.8173 88.7506 29.745 88.9169 29.6944C89.0832 29.6438 89.2567 29.6221 89.4447 29.6221C89.5387 29.6221 89.6254 29.6221 89.705 29.6221C89.7917 29.6221 89.893 29.6365 90.0231 29.6438C90.1316 29.651 90.2328 29.6582 90.3195 29.6654C90.4063 29.6654 90.4786 29.6727 90.5292 29.6727C90.7967 29.6727 90.992 29.6582 91.1149 29.6365C91.1149 29.6582 91.1076 29.6871 91.1076 29.7088C91.1076 29.7378 91.1076 29.7594 91.1076 29.7811C91.1076 29.8028 91.1076 29.8317 91.1076 29.8534C91.1076 29.8824 91.1076 29.904 91.1149 29.9257C90.9775 29.9185 90.8401 29.904 90.71 29.8968C90.5798 29.8824 90.4497 29.8751 90.3195 29.8751L90.3051 29.8896C90.4569 29.9691 90.5726 30.0993 90.6666 30.2656C90.7606 30.4391 90.804 30.6126 90.804 30.7934C90.804 31.1549 90.6811 31.4369 90.4425 31.6393C90.1966 31.8417 89.8785 31.943 89.4664 31.943C89.4013 31.943 89.3362 31.943 89.2712 31.943C89.2061 31.943 89.141 31.9357 89.0759 31.9357C88.9892 31.9357 88.9097 31.9647 88.8374 32.0297C88.7651 32.0948 88.7289 32.1743 88.7289 32.2683C88.7289 32.3912 88.7578 32.4852 88.8157 32.5431C88.8735 32.6009 88.9892 32.6298 89.1483 32.6371C89.2856 32.6371 89.4158 32.6443 89.5459 32.6443C89.6761 32.6443 89.8062 32.6443 89.9436 32.6515C90.1677 32.6515 90.3557 32.6805 90.5075 32.7311C90.6666 32.7817 90.7895 32.8467 90.8907 32.9263C90.992 33.0058 91.0643 33.0998 91.1076 33.2083C91.151 33.3167 91.1799 33.4324 91.1799 33.5553C91.1799 33.7216 91.1438 33.8951 91.086 34.0687C91.0209 34.2422 90.9197 34.394 90.7823 34.5386C90.6449 34.676 90.4714 34.7917 90.2545 34.8857C90.0376 34.9797 89.7773 35.023 89.4736 35.023C89.0109 35.023 88.6421 34.9291 88.3746 34.7483C88.1071 34.5603 87.9697 34.3072 87.9697 33.9891C87.9697 33.8662 87.9914 33.7505 88.0348 33.6421C88.0782 33.5336 88.136 33.4396 88.2083 33.3601C88.2806 33.2806 88.3602 33.2155 88.4541 33.1649C88.5481 33.1143 88.6421 33.0781 88.7361 33.0564V33.042C88.5843 32.9986 88.4758 32.9263 88.3963 32.8251C88.3168 32.7238 88.2806 32.6009 88.2806 32.4635C88.2806 32.384 88.2951 32.3045 88.324 32.2394C88.3529 32.1743 88.3963 32.1093 88.4397 32.0587C88.4903 32.008 88.5409 31.9647 88.606 31.9285C88.6711 31.8924 88.7289 31.8707 88.7867 31.8634V31.849C88.5626 31.755 88.3963 31.6176 88.2662 31.4441C88.1433 31.2706 88.0782 31.0464 88.0782 30.7861L88.0709 30.7934ZM90.6232 33.8734C90.6232 33.5842 90.5365 33.3818 90.3702 33.2661C90.2039 33.1504 89.9219 33.0926 89.5315 33.0926C89.1699 33.0926 88.8952 33.1504 88.7 33.2661C88.5048 33.3818 88.4035 33.5987 88.4035 33.9024C88.4035 34.0687 88.4325 34.206 88.4831 34.3217C88.5409 34.4374 88.6132 34.5314 88.7072 34.6037C88.8012 34.676 88.9097 34.7266 89.0398 34.7628C89.1699 34.7989 89.3073 34.8134 89.4592 34.8134C89.611 34.8134 89.7484 34.7917 89.8857 34.7555C90.0231 34.7194 90.146 34.6615 90.2545 34.582C90.3629 34.5025 90.4497 34.4085 90.5148 34.2928C90.5798 34.1771 90.616 34.0325 90.616 33.8734H90.6232ZM90.2328 30.75C90.2328 30.4463 90.1605 30.2149 90.0159 30.0559C89.8713 29.8968 89.6833 29.8173 89.4447 29.8173C89.1844 29.8173 88.982 29.904 88.8374 30.0776C88.6928 30.2511 88.6204 30.4897 88.6204 30.7789C88.6204 31.0681 88.6855 31.3212 88.8157 31.4947C88.9458 31.6682 89.1555 31.755 89.4302 31.755C89.5676 31.755 89.6905 31.7261 89.7845 31.6755C89.8857 31.6176 89.9653 31.5453 90.0303 31.4513C90.0954 31.3573 90.146 31.2489 90.1749 31.126C90.2039 31.003 90.2183 30.8729 90.2183 30.7428L90.2328 30.75Z" fill="#757574"/>
<path d="M93.4722 31.4078C93.4722 31.0969 93.5228 30.8294 93.6312 30.5981C93.7397 30.3739 93.8771 30.1859 94.0434 30.0413C94.2169 29.8967 94.4121 29.7883 94.629 29.716C94.8531 29.6437 95.0773 29.6147 95.3086 29.6147C95.5762 29.6147 95.8075 29.6437 96.0172 29.7087C96.2269 29.7738 96.3787 29.8461 96.4655 29.9256C96.4293 29.9979 96.4004 30.0703 96.3787 30.1498C96.3498 30.2293 96.3281 30.3088 96.3064 30.3956H96.2486C96.2124 30.3305 96.169 30.2727 96.1112 30.2076C96.0534 30.1426 95.9883 30.0847 95.9087 30.0269C95.8292 29.969 95.7425 29.9256 95.6485 29.8895C95.5545 29.8533 95.446 29.8389 95.3303 29.8389C95.1134 29.8389 94.9254 29.875 94.7736 29.9546C94.6145 30.0341 94.4916 30.1426 94.3904 30.2799C94.2892 30.4173 94.2169 30.5836 94.1735 30.7716C94.1301 30.9596 94.1012 31.1692 94.1012 31.3861C94.1012 31.8778 94.2096 32.2538 94.4193 32.5068C94.629 32.7599 94.9399 32.8828 95.3448 32.8828C95.4388 32.8828 95.54 32.8683 95.6412 32.8467C95.7425 32.8177 95.8437 32.7816 95.9377 32.7382C96.0317 32.6948 96.1257 32.637 96.2052 32.5791C96.292 32.5141 96.3643 32.449 96.4221 32.3767L96.4583 32.3984C96.4366 32.5141 96.4221 32.6297 96.4149 32.7527C96.2703 32.8683 96.0895 32.9696 95.8798 33.0491C95.6629 33.1286 95.446 33.172 95.2147 33.172C95.005 33.172 94.8025 33.1431 94.5929 33.0852C94.3832 33.0274 94.1952 32.9262 94.0289 32.7816C93.8626 32.637 93.7252 32.4562 93.624 32.2321C93.5228 32.008 93.4722 31.7332 93.4722 31.4078Z" fill="#757574"/>
<path d="M97.6726 30.0341C97.8895 29.875 98.0847 29.7594 98.2727 29.7015C98.4535 29.6437 98.6415 29.6147 98.8367 29.6147C99.0102 29.6147 99.1693 29.6364 99.3139 29.687C99.4585 29.7377 99.5814 29.81 99.6826 29.904C99.7838 29.9979 99.8634 30.1136 99.9212 30.2438C99.9791 30.3739 100.008 30.5185 100.008 30.6776C100.008 30.9523 100.008 31.2271 99.9935 31.4946C99.9863 31.7694 99.9791 32.0513 99.9791 32.355C99.9791 32.4128 99.9791 32.4707 99.9791 32.5358C99.9791 32.6008 99.9935 32.6587 100.008 32.7093C100.03 32.7599 100.059 32.8033 100.095 32.8322C100.131 32.8683 100.182 32.8828 100.254 32.8828C100.276 32.8828 100.304 32.8828 100.326 32.8828C100.355 32.8828 100.377 32.8756 100.398 32.8611V33.0202C100.348 33.0419 100.283 33.0636 100.203 33.078C100.124 33.0925 100.037 33.0997 99.9429 33.0997C99.7911 33.0997 99.6754 33.0636 99.5886 32.984C99.5091 32.9045 99.4585 32.8033 99.444 32.6804C99.2705 32.8539 99.1042 32.984 98.9307 33.0636C98.7572 33.1431 98.5547 33.1865 98.3089 33.1865C98.186 33.1865 98.0703 33.172 97.9546 33.1359C97.8389 33.0997 97.7377 33.0491 97.6509 32.9696C97.5642 32.89 97.4919 32.8033 97.434 32.6948C97.3762 32.5864 97.3545 32.4635 97.3545 32.3261C97.3545 32.0369 97.4413 31.8127 97.622 31.6537C97.8028 31.4946 98.0486 31.3934 98.3667 31.3355C98.627 31.2922 98.8295 31.256 98.9741 31.2271C99.1187 31.1982 99.2271 31.162 99.2994 31.1331C99.3717 31.0969 99.4079 31.0608 99.4223 31.0174C99.4368 30.974 99.444 30.9162 99.444 30.8439C99.444 30.721 99.4296 30.6053 99.4006 30.4968C99.3717 30.3884 99.3283 30.2872 99.2633 30.2076C99.1982 30.1281 99.1187 30.063 99.0174 30.0124C98.9162 29.9618 98.7933 29.9401 98.6487 29.9401C98.4535 29.9401 98.28 29.9835 98.1137 30.0703C97.9474 30.157 97.8245 30.2799 97.7449 30.4318H97.6654V30.0558L97.6726 30.0341ZM99.4513 31.3138C99.3717 31.3428 99.2777 31.3645 99.1693 31.3861C99.0608 31.4078 98.9524 31.4223 98.8439 31.444C98.7355 31.4657 98.627 31.4946 98.5186 31.5235C98.4101 31.5524 98.3161 31.6031 98.2294 31.6609C98.1426 31.7187 98.0775 31.791 98.0269 31.8778C97.9763 31.9646 97.9546 32.073 97.9546 32.2104C97.9546 32.4345 98.0197 32.6081 98.1498 32.7237C98.28 32.8394 98.4246 32.8973 98.5836 32.8973C98.7644 32.8973 98.9307 32.8467 99.0825 32.7454C99.2343 32.6442 99.35 32.5285 99.4296 32.3911L99.4585 31.3138H99.4513Z" fill="#757574"/>
<path d="M102.857 30.2008C102.784 30.1791 102.719 30.1646 102.647 30.1646C102.531 30.1646 102.43 30.1936 102.336 30.2442C102.242 30.2948 102.17 30.3671 102.105 30.4538C102.04 30.5406 101.996 30.6491 101.96 30.772C101.924 30.8949 101.91 31.025 101.91 31.1624V31.9577C101.91 32.2759 101.91 32.5217 101.91 32.6952C101.91 32.8687 101.917 33.0061 101.931 33.1073C101.837 33.1001 101.736 33.0929 101.642 33.0929C101.534 33.0929 101.432 33.0929 101.338 33.1073C101.353 32.941 101.36 32.7241 101.36 32.4422C101.36 32.1602 101.36 31.8204 101.36 31.4082V31.1769C101.36 30.9889 101.36 30.772 101.36 30.5261C101.36 30.2803 101.353 29.9983 101.338 29.6802C101.389 29.6874 101.44 29.6947 101.49 29.7019C101.541 29.7019 101.591 29.7091 101.642 29.7091C101.685 29.7091 101.729 29.7091 101.779 29.7019C101.83 29.6947 101.881 29.6874 101.931 29.6802C101.91 29.8537 101.902 29.9911 101.902 30.0923C101.902 30.1936 101.902 30.2876 101.902 30.3815H101.917C102.199 29.8682 102.517 29.6079 102.864 29.6079C102.907 29.6079 102.943 29.6079 102.972 29.6079C103.001 29.6079 103.045 29.6224 103.088 29.6441C103.066 29.7019 103.052 29.7887 103.045 29.9043C103.045 30.02 103.037 30.1285 103.037 30.2225L102.987 30.2586C102.987 30.2586 102.915 30.2008 102.849 30.1791L102.857 30.2008Z" fill="#757574"/>
<path d="M103.732 31.5091C103.732 30.9162 103.869 30.4535 104.151 30.1209C104.433 29.7883 104.838 29.6147 105.38 29.6147C105.633 29.6147 105.858 29.6509 106.038 29.7304C106.226 29.81 106.378 29.9184 106.501 30.0486C106.624 30.1787 106.718 30.3378 106.776 30.5113C106.834 30.6848 106.863 30.88 106.863 31.0825C106.863 31.1331 106.863 31.1765 106.863 31.2199C106.863 31.2632 106.863 31.3138 106.855 31.3572C106.595 31.3572 106.342 31.35 106.082 31.3428C105.821 31.3355 105.568 31.3355 105.308 31.3355C105.149 31.3355 104.99 31.3355 104.838 31.3428C104.679 31.3428 104.527 31.35 104.368 31.3572C104.368 31.3789 104.368 31.4151 104.368 31.4657V31.5597C104.368 31.7477 104.397 31.9212 104.448 32.0875C104.506 32.2538 104.585 32.3911 104.686 32.5068C104.795 32.6225 104.925 32.7165 105.077 32.7888C105.229 32.8611 105.409 32.89 105.612 32.89C105.706 32.89 105.807 32.8756 105.908 32.8539C106.009 32.825 106.111 32.7888 106.205 32.7454C106.299 32.7021 106.393 32.6442 106.472 32.5864C106.559 32.5213 106.631 32.4562 106.689 32.3839L106.725 32.4056L106.682 32.7599C106.537 32.8756 106.356 32.9768 106.147 33.0563C105.93 33.1359 105.713 33.1792 105.482 33.1792C105.221 33.1792 104.983 33.1431 104.773 33.0636C104.556 32.984 104.375 32.8683 104.216 32.7165C104.057 32.5647 103.942 32.3839 103.855 32.1815C103.768 31.979 103.732 31.7549 103.732 31.5091ZM105.395 29.8461C105.214 29.8461 105.07 29.8895 104.947 29.969C104.824 30.0486 104.722 30.1498 104.643 30.2727C104.563 30.3956 104.506 30.5258 104.462 30.6776C104.419 30.8222 104.397 30.9596 104.39 31.0897C104.542 31.0897 104.694 31.0969 104.853 31.1042C105.012 31.1042 105.171 31.1042 105.323 31.1042C105.474 31.1042 105.641 31.1042 105.807 31.1042C105.973 31.1042 106.125 31.0969 106.284 31.0897C106.284 30.9596 106.277 30.8222 106.248 30.6776C106.226 30.533 106.183 30.4028 106.118 30.2727C106.053 30.1498 105.966 30.0486 105.85 29.9618C105.735 29.8823 105.583 29.8389 105.395 29.8389V29.8461Z" fill="#757574"/>
<path d="M110.282 29.3332C110.282 29.1813 110.311 29.0367 110.369 28.9066C110.427 28.7764 110.499 28.6607 110.6 28.5668C110.702 28.4728 110.817 28.3932 110.948 28.3354C111.078 28.2775 111.23 28.2559 111.396 28.2559C111.671 28.2559 111.902 28.3209 112.083 28.4583C112.263 28.5957 112.35 28.7981 112.35 29.0584C112.35 29.1958 112.321 29.3259 112.256 29.4488C112.191 29.5718 112.112 29.6874 112.018 29.7959C111.916 29.9043 111.815 30.0056 111.699 30.0923C111.584 30.1791 111.475 30.2586 111.367 30.3165C111.584 30.5912 111.793 30.866 112.003 31.1335C112.213 31.401 112.422 31.6541 112.639 31.8854C112.813 31.6396 112.972 31.4082 113.109 31.1841C113.254 30.96 113.377 30.7214 113.493 30.4611C113.521 30.5261 113.565 30.5768 113.608 30.6201C113.659 30.6635 113.709 30.7069 113.76 30.7431C113.608 30.9744 113.464 31.1986 113.312 31.4155C113.16 31.6324 112.986 31.8565 112.784 32.0879L113.702 33.1001C113.623 33.0929 113.55 33.0856 113.471 33.0856H113.037C112.965 33.0856 112.9 33.0856 112.835 33.1001C112.798 33.0495 112.741 32.97 112.661 32.8615C112.582 32.7531 112.488 32.6374 112.386 32.5145C112.177 32.7241 111.945 32.8904 111.707 33.0133C111.461 33.1363 111.172 33.1941 110.832 33.1941C110.644 33.1941 110.47 33.1724 110.304 33.129C110.138 33.0856 109.993 33.0133 109.87 32.9121C109.747 32.8109 109.646 32.688 109.574 32.5361C109.501 32.3843 109.465 32.2108 109.465 32.0083C109.465 31.8493 109.501 31.6974 109.567 31.5456C109.632 31.3938 109.726 31.2492 109.841 31.1118C109.957 30.9744 110.094 30.8515 110.253 30.7431C110.412 30.6346 110.586 30.5406 110.774 30.4611C110.637 30.2586 110.521 30.0706 110.427 29.8827C110.333 29.6947 110.29 29.5211 110.29 29.3332H110.282ZM110.044 31.8782C110.044 32.0083 110.073 32.1313 110.123 32.2542C110.174 32.3771 110.246 32.4855 110.34 32.5795C110.434 32.6735 110.543 32.7458 110.673 32.8037C110.803 32.8615 110.94 32.8832 111.099 32.8832C111.345 32.8832 111.555 32.8398 111.728 32.7531C111.902 32.6663 112.068 32.5361 112.242 32.3699C111.996 32.0806 111.765 31.7987 111.54 31.5095C111.316 31.2275 111.099 30.931 110.882 30.6274C110.615 30.7864 110.412 30.96 110.261 31.1479C110.109 31.3359 110.037 31.5745 110.037 31.8782H110.044ZM111.974 29.0584C111.974 28.8849 111.924 28.7403 111.822 28.6318C111.721 28.5161 111.577 28.4655 111.403 28.4655C111.215 28.4655 111.07 28.5306 110.955 28.6607C110.846 28.7909 110.788 28.95 110.788 29.1452C110.788 29.2898 110.832 29.4561 110.911 29.6513C110.998 29.8465 111.107 30.02 111.237 30.1863C111.483 30.0345 111.663 29.8537 111.786 29.6513C111.909 29.4488 111.967 29.2536 111.967 29.0729L111.974 29.0584Z" fill="#757574"/>
<path d="M116.45 29.2173C116.45 29.0221 116.45 28.8341 116.443 28.6461C116.443 28.4581 116.435 28.2774 116.421 28.1111C116.421 27.9375 116.406 27.7929 116.399 27.6772C116.537 27.6989 116.645 27.7134 116.725 27.7134C116.804 27.7134 116.913 27.6989 117.05 27.6772C117.043 27.8002 117.035 27.9448 117.028 28.1111C117.028 28.2774 117.014 28.4581 117.014 28.6389C117.014 28.8269 117.007 29.0076 117.007 29.1956C117.007 29.3836 117.007 29.5571 117.007 29.7162V30.2657H117.021C117.158 30.056 117.317 29.8969 117.505 29.7885C117.693 29.6728 117.918 29.6222 118.178 29.6222C118.315 29.6222 118.445 29.6439 118.583 29.68C118.72 29.7162 118.843 29.7812 118.951 29.8752C119.06 29.9692 119.154 30.0994 119.219 30.2584C119.291 30.4175 119.32 30.6272 119.32 30.873C119.32 31.0827 119.32 31.2924 119.306 31.5093C119.291 31.7262 119.291 31.9575 119.291 32.2034V32.6733C119.291 32.7529 119.291 32.8252 119.291 32.8975C119.291 32.9698 119.291 33.0421 119.299 33.1071C119.205 33.0999 119.103 33.0927 118.995 33.0927C118.886 33.0927 118.792 33.0927 118.698 33.1071C118.706 32.8541 118.72 32.601 118.735 32.3335C118.749 32.066 118.749 31.7985 118.749 31.5165V31.0754C118.749 30.7139 118.677 30.4464 118.539 30.2584C118.402 30.0704 118.207 29.9837 117.961 29.9837C117.628 29.9837 117.383 30.0849 117.223 30.2946C117.064 30.5043 116.992 30.7935 116.992 31.1622C116.992 31.2996 116.992 31.4514 116.992 31.6322C116.992 31.8129 116.992 31.9865 116.999 32.1672C117.007 32.348 117.007 32.5215 117.014 32.6878C117.021 32.8541 117.028 32.9915 117.035 33.0999C116.927 33.0927 116.819 33.0854 116.71 33.0854C116.602 33.0854 116.493 33.0854 116.385 33.0999C116.392 32.9915 116.406 32.8469 116.406 32.6806C116.414 32.5143 116.421 32.3335 116.428 32.1455C116.428 31.9575 116.435 31.7695 116.435 31.5743C116.435 31.3791 116.435 31.2056 116.435 31.0393V29.7379C116.435 29.5788 116.435 29.398 116.435 29.2028L116.45 29.2173Z" fill="#757574"/>
<path d="M120.397 31.5091C120.397 30.9162 120.535 30.4535 120.817 30.1209C121.099 29.7883 121.504 29.6147 122.046 29.6147C122.299 29.6147 122.523 29.6509 122.704 29.7304C122.892 29.81 123.044 29.9184 123.167 30.0486C123.29 30.1787 123.384 30.3378 123.441 30.5113C123.499 30.6848 123.528 30.88 123.528 31.0825C123.528 31.1331 123.528 31.1765 123.528 31.2199C123.528 31.2632 123.528 31.3138 123.521 31.3572C123.261 31.3572 123.008 31.35 122.747 31.3428C122.487 31.3355 122.234 31.3355 121.974 31.3355C121.815 31.3355 121.656 31.3355 121.504 31.3428C121.345 31.3428 121.193 31.35 121.034 31.3572C121.034 31.3789 121.034 31.4151 121.034 31.4657V31.5597C121.034 31.7477 121.063 31.9212 121.113 32.0875C121.171 32.2538 121.251 32.3911 121.352 32.5068C121.46 32.6225 121.59 32.7165 121.742 32.7888C121.894 32.8611 122.075 32.89 122.277 32.89C122.371 32.89 122.473 32.8756 122.574 32.8539C122.675 32.825 122.776 32.7888 122.87 32.7454C122.964 32.7021 123.058 32.6442 123.138 32.5864C123.224 32.5213 123.297 32.4562 123.355 32.3839L123.391 32.4056L123.347 32.7599C123.203 32.8756 123.022 32.9768 122.812 33.0563C122.595 33.1359 122.379 33.1792 122.147 33.1792C121.887 33.1792 121.648 33.1431 121.439 33.0636C121.222 32.984 121.041 32.8683 120.882 32.7165C120.723 32.5647 120.607 32.3839 120.52 32.1815C120.434 31.979 120.397 31.7549 120.397 31.5091ZM122.06 29.8461C121.88 29.8461 121.735 29.8895 121.612 29.969C121.489 30.0486 121.388 30.1498 121.308 30.2727C121.229 30.3956 121.171 30.5258 121.128 30.6776C121.084 30.8222 121.063 30.9596 121.055 31.0897C121.207 31.0897 121.359 31.0969 121.518 31.1042C121.677 31.1042 121.836 31.1042 121.988 31.1042C122.14 31.1042 122.306 31.1042 122.473 31.1042C122.639 31.1042 122.791 31.0969 122.95 31.0897C122.95 30.9596 122.942 30.8222 122.914 30.6776C122.892 30.533 122.849 30.4028 122.783 30.2727C122.718 30.1498 122.632 30.0486 122.516 29.9618C122.4 29.8823 122.248 29.8389 122.06 29.8389V29.8461Z" fill="#757574"/>
<path d="M124.793 30.0341C125.01 29.875 125.205 29.7594 125.393 29.7015C125.574 29.6437 125.762 29.6147 125.957 29.6147C126.131 29.6147 126.29 29.6364 126.434 29.687C126.579 29.7377 126.702 29.81 126.803 29.904C126.904 29.9979 126.984 30.1136 127.042 30.2438C127.1 30.3739 127.129 30.5185 127.129 30.6776C127.129 30.9523 127.129 31.2271 127.114 31.4946C127.107 31.7694 127.1 32.0513 127.1 32.355C127.1 32.4128 127.1 32.4707 127.1 32.5358C127.1 32.6008 127.114 32.6587 127.129 32.7093C127.15 32.7599 127.179 32.8033 127.215 32.8322C127.251 32.8683 127.302 32.8828 127.374 32.8828C127.396 32.8828 127.425 32.8828 127.447 32.8828C127.476 32.8828 127.497 32.8756 127.519 32.8611V33.0202C127.468 33.0419 127.403 33.0636 127.324 33.078C127.244 33.0925 127.158 33.0997 127.064 33.0997C126.912 33.0997 126.796 33.0636 126.709 32.984C126.63 32.9045 126.579 32.8033 126.565 32.6804C126.391 32.8539 126.225 32.984 126.051 33.0636C125.878 33.1431 125.675 33.1865 125.429 33.1865C125.307 33.1865 125.191 33.172 125.075 33.1359C124.96 33.0997 124.858 33.0491 124.772 32.9696C124.685 32.89 124.612 32.8033 124.555 32.6948C124.497 32.5864 124.475 32.4635 124.475 32.3261C124.475 32.0369 124.562 31.8127 124.743 31.6537C124.923 31.4946 125.169 31.3934 125.487 31.3355C125.748 31.2922 125.95 31.256 126.095 31.2271C126.239 31.1982 126.348 31.162 126.42 31.1331C126.492 31.0969 126.528 31.0608 126.543 31.0174C126.557 30.974 126.565 30.9162 126.565 30.8439C126.565 30.721 126.55 30.6053 126.521 30.4968C126.492 30.3884 126.449 30.2872 126.384 30.2076C126.319 30.1281 126.239 30.063 126.138 30.0124C126.037 29.9618 125.914 29.9401 125.769 29.9401C125.574 29.9401 125.401 29.9835 125.234 30.0703C125.068 30.157 124.945 30.2799 124.866 30.4318H124.786V30.0558L124.793 30.0341ZM126.572 31.3138C126.492 31.3428 126.398 31.3645 126.29 31.3861C126.181 31.4078 126.073 31.4223 125.965 31.444C125.856 31.4657 125.748 31.4946 125.639 31.5235C125.531 31.5524 125.437 31.6031 125.35 31.6609C125.263 31.7187 125.198 31.791 125.148 31.8778C125.097 31.9646 125.075 32.073 125.075 32.2104C125.075 32.4345 125.14 32.6081 125.27 32.7237C125.401 32.8394 125.545 32.8973 125.704 32.8973C125.885 32.8973 126.051 32.8467 126.203 32.7454C126.355 32.6442 126.471 32.5285 126.55 32.3911L126.579 31.3138H126.572Z" fill="#757574"/>
<path d="M128.502 29.2173C128.502 29.0221 128.502 28.8341 128.495 28.6461C128.495 28.4581 128.488 28.2774 128.481 28.1111C128.473 27.9375 128.466 27.7929 128.459 27.6772C128.596 27.6989 128.698 27.7134 128.784 27.7134C128.871 27.7134 128.972 27.6989 129.11 27.6772C129.102 27.8002 129.088 27.9448 129.088 28.1111C129.081 28.2846 129.074 28.4581 129.066 28.6461C129.066 28.8341 129.059 29.0221 129.059 29.2173C129.059 29.4125 129.059 29.586 129.059 29.7523V31.0538C129.059 31.2201 129.059 31.3936 129.059 31.5888C129.059 31.784 129.059 31.972 129.066 32.16C129.066 32.348 129.074 32.5215 129.088 32.695C129.088 32.8613 129.102 32.9987 129.11 33.1144C129.001 33.1071 128.893 33.0999 128.784 33.0999C128.676 33.0999 128.567 33.0999 128.459 33.1144C128.466 33.0059 128.473 32.8613 128.481 32.695C128.481 32.5287 128.495 32.348 128.495 32.16C128.495 31.972 128.502 31.784 128.502 31.5888C128.502 31.3936 128.502 31.2201 128.502 31.0538V29.7523C128.502 29.5933 128.502 29.4125 128.502 29.2173Z" fill="#757574"/>
<path d="M131.264 28.7254C131.25 28.9062 131.243 29.0869 131.228 29.2604C131.228 29.434 131.214 29.6147 131.206 29.7882C131.257 29.7882 131.358 29.7882 131.503 29.7882C131.647 29.7882 131.806 29.781 131.973 29.7665C131.973 29.781 131.966 29.8099 131.966 29.8461V29.9979C131.966 29.9979 131.966 30.0558 131.973 30.0702C131.908 30.0702 131.843 30.063 131.778 30.063C131.712 30.063 131.64 30.063 131.561 30.063H131.206C131.206 30.063 131.199 30.157 131.192 30.2944C131.185 30.4317 131.177 30.5908 131.17 30.7716C131.163 30.9523 131.163 31.1475 131.163 31.35C131.163 31.5524 131.163 31.7332 131.163 31.8922C131.163 32.0296 131.163 32.1598 131.177 32.2899C131.177 32.42 131.206 32.5357 131.243 32.6369C131.279 32.7382 131.337 32.8249 131.416 32.8828C131.496 32.9406 131.604 32.9768 131.749 32.9768C131.785 32.9768 131.835 32.9768 131.9 32.9623C131.966 32.9478 132.023 32.9406 132.067 32.9262V33.0997C131.987 33.1141 131.893 33.1286 131.799 33.1503C131.698 33.172 131.604 33.1792 131.517 33.1792C131.214 33.1792 130.989 33.1069 130.845 32.9551C130.7 32.8032 130.628 32.5863 130.628 32.2971C130.628 32.167 130.628 32.0296 130.628 31.8778C130.628 31.7259 130.642 31.5596 130.65 31.3789C130.657 31.1981 130.664 31.0029 130.671 30.7788C130.671 30.5619 130.671 30.316 130.671 30.0485H130.44C130.404 30.0485 130.36 30.0485 130.317 30.0485C130.274 30.0485 130.23 30.0485 130.18 30.0558C130.18 30.0268 130.187 29.9979 130.187 29.9762C130.187 29.9545 130.187 29.9256 130.187 29.8967C130.187 29.875 130.187 29.8461 130.187 29.8244C130.187 29.8027 130.187 29.7738 130.18 29.7521C130.397 29.7666 130.556 29.7738 130.657 29.7738C130.657 29.6798 130.65 29.5569 130.65 29.4123C130.65 29.2677 130.642 29.1231 130.628 28.964L131.228 28.7109H131.264V28.7254Z" fill="#757574"/>
<path d="M133.238 29.2173C133.238 29.0221 133.238 28.8341 133.231 28.6461C133.231 28.4581 133.224 28.2774 133.209 28.1111C133.209 27.9375 133.195 27.7929 133.188 27.6772C133.325 27.6989 133.434 27.7134 133.513 27.7134C133.593 27.7134 133.701 27.6989 133.839 27.6772C133.831 27.8002 133.824 27.9448 133.817 28.1111C133.817 28.2774 133.802 28.4581 133.802 28.6389C133.802 28.8269 133.795 29.0076 133.795 29.1956C133.795 29.3836 133.795 29.5571 133.795 29.7162V30.2657H133.81C133.947 30.056 134.106 29.8969 134.294 29.7885C134.482 29.6728 134.706 29.6222 134.966 29.6222C135.104 29.6222 135.234 29.6439 135.371 29.68C135.509 29.7162 135.632 29.7812 135.74 29.8752C135.849 29.9692 135.943 30.0994 136.008 30.2584C136.08 30.4175 136.109 30.6272 136.109 30.873C136.109 31.0827 136.109 31.2924 136.094 31.5093C136.08 31.7262 136.08 31.9575 136.08 32.2034V32.6733C136.08 32.7529 136.08 32.8252 136.08 32.8975C136.08 32.9698 136.08 33.0421 136.087 33.1071C135.993 33.0999 135.892 33.0927 135.783 33.0927C135.675 33.0927 135.581 33.0927 135.487 33.1071C135.494 32.8541 135.509 32.601 135.523 32.3335C135.538 32.066 135.538 31.7985 135.538 31.5165V31.0754C135.538 30.7139 135.465 30.4464 135.328 30.2584C135.191 30.0704 134.995 29.9837 134.75 29.9837C134.417 29.9837 134.171 30.0849 134.012 30.2946C133.853 30.5043 133.781 30.7935 133.781 31.1622C133.781 31.2996 133.781 31.4514 133.781 31.6322C133.781 31.8129 133.781 31.9865 133.788 32.1672C133.795 32.348 133.795 32.5215 133.802 32.6878C133.81 32.8541 133.817 32.9915 133.824 33.0999C133.716 33.0927 133.607 33.0854 133.499 33.0854C133.39 33.0854 133.282 33.0854 133.173 33.0999C133.181 32.9915 133.195 32.8469 133.195 32.6806C133.202 32.5143 133.209 32.3335 133.217 32.1455C133.217 31.9575 133.224 31.7695 133.224 31.5743C133.224 31.3791 133.224 31.2056 133.224 31.0393V29.7379C133.224 29.5788 133.224 29.398 133.224 29.2028L133.238 29.2173Z" fill="#757574"/>
<path d="M138.95 31.4078C138.95 31.0969 139.001 30.8294 139.109 30.5981C139.218 30.3739 139.355 30.1859 139.521 30.0413C139.695 29.8967 139.89 29.7883 140.107 29.716C140.331 29.6437 140.555 29.6147 140.787 29.6147C141.054 29.6147 141.286 29.6437 141.495 29.7087C141.705 29.7738 141.857 29.8461 141.944 29.9256C141.907 29.9979 141.878 30.0703 141.857 30.1498C141.828 30.2293 141.806 30.3088 141.784 30.3956H141.727C141.69 30.3305 141.647 30.2727 141.589 30.2076C141.531 30.1426 141.466 30.0847 141.387 30.0269C141.307 29.969 141.22 29.9256 141.126 29.8895C141.033 29.8533 140.924 29.8389 140.808 29.8389C140.591 29.8389 140.403 29.875 140.252 29.9546C140.093 30.0341 139.97 30.1426 139.868 30.2799C139.767 30.4173 139.695 30.5836 139.652 30.7716C139.608 30.9596 139.579 31.1692 139.579 31.3861C139.579 31.8778 139.688 32.2538 139.897 32.5068C140.107 32.7599 140.418 32.8828 140.823 32.8828C140.917 32.8828 141.018 32.8683 141.119 32.8467C141.22 32.8177 141.322 32.7816 141.416 32.7382C141.51 32.6948 141.604 32.637 141.683 32.5791C141.77 32.5141 141.842 32.449 141.9 32.3767L141.936 32.3984C141.915 32.5141 141.9 32.6297 141.893 32.7527C141.748 32.8683 141.568 32.9696 141.358 33.0491C141.141 33.1286 140.924 33.172 140.693 33.172C140.483 33.172 140.281 33.1431 140.071 33.0852C139.861 33.0274 139.673 32.9262 139.507 32.7816C139.341 32.637 139.203 32.4562 139.102 32.2321C139.001 32.008 138.95 31.7332 138.95 31.4078Z" fill="#757574"/>
<path d="M143.151 30.0341C143.368 29.875 143.563 29.7594 143.751 29.7015C143.932 29.6437 144.12 29.6147 144.315 29.6147C144.488 29.6147 144.647 29.6364 144.792 29.687C144.937 29.7377 145.059 29.81 145.161 29.904C145.262 29.9979 145.341 30.1136 145.399 30.2438C145.457 30.3739 145.486 30.5185 145.486 30.6776C145.486 30.9523 145.486 31.2271 145.472 31.4946C145.464 31.7694 145.457 32.0513 145.457 32.355C145.457 32.4128 145.457 32.4707 145.457 32.5358C145.457 32.6008 145.472 32.6587 145.486 32.7093C145.508 32.7599 145.537 32.8033 145.573 32.8322C145.609 32.8683 145.66 32.8828 145.732 32.8828C145.754 32.8828 145.782 32.8828 145.804 32.8828C145.833 32.8828 145.855 32.8756 145.876 32.8611V33.0202C145.826 33.0419 145.761 33.0636 145.681 33.078C145.602 33.0925 145.515 33.0997 145.421 33.0997C145.269 33.0997 145.153 33.0636 145.067 32.984C144.987 32.9045 144.937 32.8033 144.922 32.6804C144.749 32.8539 144.582 32.984 144.409 33.0636C144.235 33.1431 144.033 33.1865 143.787 33.1865C143.664 33.1865 143.548 33.172 143.433 33.1359C143.317 33.0997 143.216 33.0491 143.129 32.9696C143.042 32.89 142.97 32.8033 142.912 32.6948C142.854 32.5864 142.833 32.4635 142.833 32.3261C142.833 32.0369 142.919 31.8127 143.1 31.6537C143.281 31.4946 143.527 31.3934 143.845 31.3355C144.105 31.2922 144.307 31.256 144.452 31.2271C144.597 31.1982 144.705 31.162 144.777 31.1331C144.85 31.0969 144.886 31.0608 144.9 31.0174C144.915 30.974 144.922 30.9162 144.922 30.8439C144.922 30.721 144.908 30.6053 144.879 30.4968C144.85 30.3884 144.806 30.2872 144.741 30.2076C144.676 30.1281 144.597 30.063 144.495 30.0124C144.394 29.9618 144.271 29.9401 144.127 29.9401C143.932 29.9401 143.758 29.9835 143.592 30.0703C143.425 30.157 143.302 30.2799 143.223 30.4318H143.143V30.0558L143.151 30.0341ZM144.929 31.3138C144.85 31.3428 144.756 31.3645 144.647 31.3861C144.539 31.4078 144.43 31.4223 144.322 31.444C144.213 31.4657 144.105 31.4946 143.997 31.5235C143.888 31.5524 143.794 31.6031 143.707 31.6609C143.621 31.7187 143.556 31.791 143.505 31.8778C143.454 31.9646 143.433 32.073 143.433 32.2104C143.433 32.4345 143.498 32.6081 143.628 32.7237C143.758 32.8394 143.903 32.8973 144.062 32.8973C144.242 32.8973 144.409 32.8467 144.561 32.7454C144.712 32.6442 144.828 32.5285 144.908 32.3911L144.937 31.3138H144.929Z" fill="#757574"/>
<path d="M148.327 30.2008C148.255 30.1791 148.19 30.1646 148.118 30.1646C148.002 30.1646 147.901 30.1936 147.807 30.2442C147.713 30.2948 147.641 30.3671 147.575 30.4538C147.51 30.5406 147.467 30.6491 147.431 30.772C147.395 30.8949 147.38 31.025 147.38 31.1624V31.9577C147.38 32.2759 147.38 32.5217 147.38 32.6952C147.38 32.8687 147.387 33.0061 147.402 33.1073C147.308 33.1001 147.207 33.0929 147.113 33.0929C147.004 33.0929 146.903 33.0929 146.809 33.1073C146.824 32.941 146.831 32.7241 146.831 32.4422C146.831 32.1602 146.831 31.8204 146.831 31.4082V31.1769C146.831 30.9889 146.831 30.772 146.831 30.5261C146.831 30.2803 146.824 29.9983 146.809 29.6802C146.86 29.6874 146.91 29.6947 146.961 29.7019C147.012 29.7019 147.062 29.7091 147.113 29.7091C147.156 29.7091 147.2 29.7091 147.25 29.7019C147.301 29.6947 147.351 29.6874 147.402 29.6802C147.38 29.8537 147.373 29.9911 147.373 30.0923C147.373 30.1936 147.373 30.2876 147.373 30.3815H147.388C147.669 29.8682 147.988 29.6079 148.335 29.6079C148.378 29.6079 148.414 29.6079 148.443 29.6079C148.472 29.6079 148.515 29.6224 148.559 29.6441C148.537 29.7019 148.523 29.7887 148.515 29.9043C148.515 30.02 148.508 30.1285 148.508 30.2225L148.458 30.2586C148.458 30.2586 148.385 30.2008 148.32 30.1791L148.327 30.2008Z" fill="#757574"/>
<path d="M149.21 31.5091C149.21 30.9162 149.347 30.4535 149.629 30.1209C149.911 29.7883 150.316 29.6147 150.858 29.6147C151.112 29.6147 151.336 29.6509 151.516 29.7304C151.704 29.81 151.856 29.9184 151.979 30.0486C152.102 30.1787 152.196 30.3378 152.254 30.5113C152.312 30.6848 152.341 30.88 152.341 31.0825C152.341 31.1331 152.341 31.1765 152.341 31.2199C152.341 31.2632 152.341 31.3138 152.333 31.3572C152.073 31.3572 151.82 31.35 151.56 31.3428C151.299 31.3355 151.046 31.3355 150.786 31.3355C150.627 31.3355 150.468 31.3355 150.316 31.3428C150.157 31.3428 150.005 31.35 149.846 31.3572C149.846 31.3789 149.846 31.4151 149.846 31.4657V31.5597C149.846 31.7477 149.875 31.9212 149.926 32.0875C149.984 32.2538 150.063 32.3911 150.164 32.5068C150.273 32.6225 150.403 32.7165 150.555 32.7888C150.707 32.8611 150.887 32.89 151.09 32.89C151.184 32.89 151.285 32.8756 151.386 32.8539C151.487 32.825 151.589 32.7888 151.683 32.7454C151.777 32.7021 151.871 32.6442 151.95 32.5864C152.037 32.5213 152.109 32.4562 152.167 32.3839L152.203 32.4056L152.16 32.7599C152.015 32.8756 151.835 32.9768 151.625 33.0563C151.408 33.1359 151.191 33.1792 150.96 33.1792C150.699 33.1792 150.461 33.1431 150.251 33.0636C150.034 32.984 149.853 32.8683 149.694 32.7165C149.535 32.5647 149.42 32.3839 149.333 32.1815C149.246 31.979 149.21 31.7549 149.21 31.5091ZM150.88 29.8461C150.699 29.8461 150.555 29.8895 150.432 29.969C150.309 30.0486 150.208 30.1498 150.128 30.2727C150.049 30.3956 149.991 30.5258 149.947 30.6776C149.904 30.8222 149.882 30.9596 149.875 31.0897C150.027 31.0897 150.179 31.0969 150.338 31.1042C150.497 31.1042 150.656 31.1042 150.808 31.1042C150.96 31.1042 151.126 31.1042 151.292 31.1042C151.459 31.1042 151.61 31.0969 151.769 31.0897C151.769 30.9596 151.762 30.8222 151.733 30.6776C151.712 30.533 151.668 30.4028 151.603 30.2727C151.538 30.1498 151.451 30.0486 151.336 29.9618C151.22 29.8823 151.068 29.8389 150.88 29.8389V29.8461Z" fill="#757574"/>
<path d="M193.511 18.2831C193.538 20.058 193.596 21.6854 193.682 23.1612C193.682 23.2467 193.655 23.3166 193.596 23.3748C193.286 23.7166 192.901 23.8875 192.447 23.8875C192.334 23.8875 192.229 23.8409 192.14 23.7477C192.047 23.6545 192 23.5613 192 23.4603C192.058 22.6214 192.105 21.8096 192.148 21.0212C192.19 20.2328 192.217 19.1997 192.233 17.9219V9.22981C192.233 7.55587 192.155 6.1771 192 5.09739V5.05467C192 4.95757 192.058 4.9265 192.171 4.96922L193.767 5.6489H196.303L196.688 5.22167C196.731 5.17895 196.812 5.0935 196.933 4.96534C197.053 4.83717 197.158 4.77503 197.239 4.77503C197.352 4.77503 197.601 4.96922 197.985 5.36149C198.37 5.75376 198.618 6.06059 198.731 6.28585C198.773 6.37129 198.75 6.4412 198.669 6.49946C198.54 6.56937 198.272 6.61986 197.861 6.64705C196.583 9.09 195.666 10.7018 195.115 11.4825C196.094 12.2476 196.8 13.0593 197.235 13.9099C197.67 14.7604 197.884 15.6226 197.884 16.4887C197.884 17.4131 197.694 18.1044 197.309 18.5666C196.925 19.0288 196.299 19.2929 195.433 19.3667H195.391C195.305 19.3667 195.262 19.3162 195.262 19.2191C195.235 18.7919 195.15 18.4812 195.006 18.2831C194.851 18.1549 194.571 18.0578 194.175 17.984C194.062 17.9568 194.004 17.8908 194.004 17.7937C194.004 17.6966 194.062 17.6461 194.175 17.6461H195.41C195.666 17.6461 195.849 17.6034 195.965 17.518C196.319 17.3354 196.498 16.8577 196.498 16.0926C196.498 14.5041 195.899 13.0243 194.707 11.6611C194.649 11.5912 194.637 11.5135 194.664 11.4281C195.204 9.99494 195.771 8.27439 196.369 6.2742H193.511V18.287V18.2831ZM207.656 5.26828C207.699 5.21002 207.761 5.12069 207.846 5.00029C207.932 4.87989 208.005 4.78668 208.071 4.72454C208.134 4.65851 208.196 4.62744 208.254 4.62744C208.367 4.62744 208.654 4.81775 209.116 5.20225C209.578 5.58675 209.858 5.87804 209.959 6.07612C209.975 6.14603 209.967 6.21982 209.94 6.28973C209.854 6.44509 209.683 6.52276 209.427 6.52276H200.544V10.8261H206.914L207.299 10.3989C207.341 10.3561 207.423 10.2707 207.543 10.1425C207.664 10.0144 207.768 9.95221 207.85 9.95221C207.978 9.95221 208.219 10.1192 208.572 10.4532C208.926 10.7872 209.147 11.0591 209.233 11.2727C209.275 11.331 209.26 11.3931 209.19 11.463C209.077 11.5485 208.837 11.6106 208.468 11.6533C207.757 14.5507 206.735 16.9082 205.399 18.7259C206.693 20.2328 208.332 21.4096 210.32 22.2602C210.406 22.3029 210.448 22.3456 210.448 22.3883C210.448 22.4738 210.39 22.5281 210.277 22.5592C209.753 22.6447 209.345 22.9554 209.062 23.4952C209.035 23.5535 209 23.5884 208.965 23.6001C208.93 23.6156 208.891 23.6079 208.848 23.5807C207.089 22.6019 205.675 21.3242 204.611 19.7473C203.104 21.4368 201.216 22.7418 198.944 23.6661C198.843 23.7088 198.766 23.6855 198.711 23.6001L198.692 23.5807L198.649 23.4952C198.649 23.437 198.684 23.3904 198.754 23.3476C200.913 22.1825 202.657 20.6717 203.993 18.8113C202.855 16.881 202.063 14.4225 201.609 11.4436H200.544V12.4884C200.544 14.0769 200.44 15.5256 200.226 16.8344C200.012 18.1394 199.57 19.3978 198.894 20.6056C198.218 21.8135 197.243 22.8699 195.965 23.7788C195.88 23.837 195.802 23.8292 195.732 23.7593L195.69 23.7166C195.589 23.6467 195.585 23.569 195.67 23.4836C197.076 22.1203 198.028 20.559 198.525 18.7958C199.022 17.0364 199.271 14.9391 199.271 12.5117V8.8492C199.271 7.5015 199.208 6.32857 199.08 5.3343V5.29158C199.08 5.19448 199.139 5.16341 199.251 5.20614L200.828 5.88581H207.217L207.664 5.26828H207.656ZM202.051 11.4436C202.533 13.8866 203.399 16.0033 204.65 17.7898C205.757 15.9567 206.545 13.8438 207.015 11.4436H202.051Z" fill="#767674"/>
<path d="M215.897 17.6655H215.94C216.025 17.6655 216.084 17.7238 216.111 17.8364C216.126 17.9801 216.134 18.1898 216.134 18.4772C216.134 19.3861 215.955 20.1784 215.602 20.8503C215.245 21.5261 214.841 22.0193 214.386 22.33C214.076 22.5553 213.761 22.6718 213.45 22.6718C213.178 22.6718 212.98 22.5669 212.852 22.3533C212.809 22.2679 212.79 22.1747 212.79 22.0776C212.79 21.9222 212.841 21.7707 212.938 21.6193C213.035 21.4678 213.171 21.3396 213.342 21.227C213.854 20.959 214.34 20.5085 214.802 19.8832C215.264 19.2579 215.563 18.5782 215.707 17.8403C215.734 17.7276 215.8 17.6694 215.897 17.6694V17.6655ZM227.269 8.80254C227.312 8.74428 227.382 8.65107 227.483 8.51513C227.58 8.3792 227.673 8.31317 227.758 8.31317C227.871 8.31317 228.131 8.48406 228.535 8.82584C228.939 9.16762 229.192 9.43561 229.293 9.63368C229.335 9.70359 229.32 9.77739 229.25 9.8473C229.063 10.0182 228.803 10.1308 228.461 10.1891V12.2553C228.504 14.003 228.555 15.3002 228.609 16.1547C228.609 16.2401 228.582 16.31 228.524 16.3683C228.395 16.4965 228.217 16.613 227.98 16.7217C227.747 16.8266 227.529 16.881 227.331 16.881H227.288C227.176 16.881 227.118 16.8227 227.118 16.7101V15.9217H219.109C218.2 15.9372 217.187 16.0265 216.064 16.1974H216.002C215.944 16.1974 215.897 16.1625 215.854 16.0925L215.47 15.3468C215.47 15.3468 215.45 15.3041 215.45 15.2614C215.45 15.1915 215.501 15.1565 215.598 15.1565C216.379 15.2264 217.245 15.2769 218.196 15.3041H227.121V12.8767H219.645C218.736 12.8922 217.723 12.9816 216.6 13.1525H216.534C216.476 13.1525 216.429 13.1175 216.386 13.0476L216.025 12.3019C216.025 12.3019 216.006 12.2592 216.006 12.2165C216.006 12.1465 216.056 12.1116 216.153 12.1116C216.934 12.1815 217.8 12.232 218.752 12.2592H227.121V9.91721H216.196C215.272 10.725 214.344 11.3853 213.408 11.898C213.307 11.9407 213.229 11.9174 213.175 11.8319L213.155 11.8125C213.085 11.7115 213.097 11.6339 213.198 11.5795C214.448 10.628 215.61 9.41619 216.689 7.93644C217.086 7.39658 217.451 6.77128 217.785 6.06053C218.119 5.34979 218.356 4.70507 218.499 4.12249C218.527 4.00986 218.604 3.9749 218.732 4.01762C220.096 4.4565 220.775 4.76332 220.775 4.93421C220.775 4.97694 220.709 5.01189 220.585 5.03908L220.224 5.1051C219.94 5.55952 219.719 5.90129 219.563 6.12656H223.44L223.867 5.67991C223.925 5.62166 224.014 5.53233 224.135 5.40416C224.255 5.27599 224.36 5.21385 224.442 5.21385C224.554 5.21385 224.799 5.39251 225.176 5.74594C225.552 6.10326 225.789 6.38678 225.89 6.59651C225.933 6.68195 225.91 6.75186 225.828 6.81012C225.716 6.86838 225.479 6.9111 225.125 6.93829C224.073 7.99081 223.207 8.77923 222.527 9.30356H226.935L227.277 8.81419L227.269 8.80254ZM221.905 9.2919C222.43 8.53844 222.919 7.68787 223.374 6.73632H219.136C218.398 7.71506 217.645 8.56951 216.88 9.2919H221.905ZM217.983 19.6036C217.983 18.7374 217.94 17.9568 217.855 17.2616C217.855 17.1179 217.925 17.0713 218.068 17.114C218.678 17.3276 219.109 17.4946 219.358 17.615C219.606 17.7354 219.73 17.8403 219.73 17.9257C219.73 17.984 219.68 18.0384 219.583 18.0966L219.307 18.2869V21.7785C219.307 21.9494 219.365 22.0582 219.478 22.1086C219.591 22.1591 219.866 22.1824 220.309 22.1824H222.95C224.158 22.1824 224.974 22.1669 225.401 22.1397C225.545 22.1242 225.646 22.1009 225.712 22.0659C225.774 22.031 225.836 21.9649 225.894 21.864C226.038 21.5532 226.228 20.8114 226.469 19.6502C226.485 19.5531 226.539 19.5026 226.64 19.5026C226.725 19.5026 226.768 19.5608 226.768 19.6735L226.811 21.9533C227.036 22.0232 227.199 22.1009 227.288 22.1863C227.382 22.2718 227.428 22.3844 227.428 22.5281C227.428 22.7534 227.316 22.9281 227.087 23.0485C226.861 23.1689 226.426 23.2583 225.785 23.3165C225.148 23.3748 224.189 23.402 222.911 23.402H220.165C219.54 23.402 219.078 23.3631 218.783 23.2854C218.484 23.2078 218.278 23.0757 218.165 22.8932C218.053 22.7068 217.994 22.4232 217.994 22.0426V19.6152L217.983 19.6036ZM220.391 16.7489C220.449 16.679 220.527 16.6518 220.624 16.6635C221.49 16.8344 222.201 17.079 222.752 17.3975C223.304 17.716 223.708 18.0539 223.956 18.4073C224.205 18.7646 224.329 19.0948 224.329 19.4094C224.329 19.6346 224.271 19.8172 224.158 19.9531C224.045 20.089 223.89 20.1551 223.688 20.1551C223.576 20.1551 223.463 20.1279 223.346 20.0696C223.288 20.0541 223.242 20.0036 223.199 19.922C223.001 19.4249 222.636 18.9045 222.104 18.3568C221.571 17.8092 221.012 17.347 220.433 16.9625C220.332 16.8926 220.321 16.8188 220.391 16.7489ZM226.675 17.5373C226.733 17.4791 226.811 17.4674 226.908 17.4946C227.945 17.8636 228.792 18.2908 229.452 18.7724C230.112 19.254 230.586 19.7356 230.877 20.2094C231.168 20.6833 231.312 21.1221 231.312 21.5183C231.312 21.7902 231.246 22.0038 231.122 22.1669C230.994 22.33 230.831 22.4116 230.632 22.4116C230.489 22.4116 230.341 22.3689 230.186 22.2834C230.116 22.2562 230.073 22.198 230.058 22.1125C229.844 21.4018 229.417 20.6444 228.78 19.8444C228.143 19.0404 227.452 18.3413 226.714 17.7471C226.613 17.6772 226.601 17.6034 226.671 17.5335L226.675 17.5373Z" fill="#767674"/>
<path d="M251.936 14.2129C251.979 14.1547 252.033 14.0731 252.095 13.9682C252.157 13.8634 252.215 13.7857 252.266 13.7352C252.316 13.6847 252.367 13.6614 252.425 13.6614C252.538 13.6614 252.767 13.8284 253.105 14.1624C253.447 14.4964 253.653 14.7605 253.722 14.9625C253.738 15.0324 253.738 15.1062 253.722 15.1761C253.637 15.3315 253.474 15.4091 253.233 15.4091H251.276C251.206 17.1569 251.089 18.5628 250.934 19.627H251.19L251.509 19.0949C251.551 19.0367 251.606 18.9551 251.668 18.8502C251.73 18.7454 251.788 18.6638 251.839 18.6172C251.889 18.5667 251.94 18.5434 251.998 18.5434C252.111 18.5434 252.344 18.7065 252.689 19.0328C253.039 19.359 253.252 19.6231 253.338 19.8212C253.353 19.8911 253.346 19.9649 253.319 20.0348C253.233 20.1902 253.078 20.2679 252.849 20.2679H250.844C250.658 21.6039 250.382 22.4817 250.013 22.9089C249.8 23.1924 249.524 23.4099 249.182 23.5575C248.84 23.7051 248.471 23.7866 248.075 23.8022C247.963 23.8022 247.904 23.7439 247.904 23.6313C247.877 23.2468 247.761 22.9866 247.563 22.8429C247.434 22.7419 247.217 22.6448 246.914 22.5438C246.607 22.4428 246.277 22.3574 245.924 22.2875C245.823 22.2603 245.776 22.1943 245.776 22.0972V22.0544C245.776 21.9962 245.792 21.9573 245.83 21.9263C245.865 21.8991 245.912 21.8913 245.97 21.9068C247.19 22.035 247.974 22.0972 248.312 22.0972C248.51 22.0972 248.662 22.0816 248.759 22.0428C248.856 22.0078 248.972 21.9418 249.101 21.8408C249.283 21.6272 249.454 21.1029 249.613 20.264H243.329L243.201 21.3087C243.201 21.3942 243.158 21.4563 243.073 21.499C242.929 21.5845 242.747 21.6272 242.517 21.6272C242.448 21.6272 242.284 21.6117 242.028 21.5845C241.915 21.5573 241.865 21.4913 241.881 21.3942C242.094 19.961 242.343 17.9647 242.626 15.4091H241.411C241.426 15.4674 241.43 15.5373 241.43 15.6228C241.43 15.848 241.372 16.0344 241.259 16.1782C241.146 16.3219 241.003 16.3918 240.832 16.3918C240.688 16.3918 240.548 16.3413 240.405 16.2442C240.346 16.217 240.3 16.1587 240.257 16.0733C240.129 15.6616 239.931 15.2033 239.659 14.6984C239.387 14.1935 239.092 13.7236 238.766 13.2808V18.2211C238.793 19.9805 238.851 21.6156 238.937 23.1186C238.937 23.1885 238.917 23.2545 238.874 23.3089C238.762 23.4526 238.599 23.5769 238.385 23.6818C238.171 23.7866 237.958 23.841 237.748 23.841C237.604 23.841 237.484 23.7983 237.387 23.7128C237.286 23.6274 237.239 23.5264 237.239 23.4138C237.298 22.5749 237.344 21.7631 237.387 20.9747C237.43 20.1863 237.457 19.1532 237.472 17.8754V13.8944C236.734 15.7703 235.725 17.4365 234.447 18.9007C234.389 18.9706 234.311 18.9706 234.214 18.9007L234.148 18.8347C234.062 18.7493 234.047 18.6716 234.105 18.6017C235.554 16.4423 236.598 13.576 237.235 9.99505H236.385C235.946 10.0106 235.495 10.096 235.041 10.2514H234.975C234.917 10.2514 234.87 10.2164 234.827 10.1465L234.466 9.44354L234.447 9.35809C234.447 9.25711 234.505 9.22216 234.618 9.25323C235.243 9.32314 235.868 9.36586 236.494 9.3814H237.472V8.57355C237.472 7.02778 237.395 5.64124 237.239 4.42171V4.37898C237.239 4.26635 237.301 4.2314 237.43 4.27412C238.125 4.4722 238.61 4.6392 238.89 4.77514C239.166 4.91107 239.306 5.02759 239.306 5.12857C239.306 5.19848 239.247 5.27227 239.135 5.34218L238.773 5.57521V9.38916H239.329L239.733 8.77163C239.775 8.71337 239.834 8.62404 239.915 8.50364C239.993 8.38324 240.059 8.29392 240.117 8.23566C240.176 8.1774 240.23 8.15021 240.288 8.15021C240.401 8.15021 240.665 8.33664 241.077 8.7056C241.488 9.07457 241.745 9.35809 241.842 9.55617L241.861 9.64161C241.861 9.75425 241.807 9.84358 241.702 9.9096C241.597 9.97174 241.473 10.0067 241.329 10.0067H238.773V12.8186C239.966 13.4012 240.762 14.0537 241.158 14.78H242.692C242.89 12.9468 243.053 11.2573 243.182 9.71152C242.642 10.465 242.051 11.1175 241.414 11.6729C241.356 11.7583 241.279 11.7661 241.181 11.6923L241.139 11.6729C241.053 11.6146 241.046 11.5369 241.115 11.4398C241.698 10.6592 242.238 9.72318 242.735 8.62793C243.019 8.01816 243.271 7.30353 243.492 6.48792C243.714 5.67231 243.85 4.96545 243.908 4.36733C243.923 4.23917 243.993 4.19644 244.122 4.23917C245.399 4.62367 246.04 4.90719 246.04 5.08973C246.04 5.14799 245.974 5.20236 245.85 5.26062L245.489 5.40821C245.232 6.08788 244.929 6.78698 244.572 7.49384H250.452L250.879 6.87631C250.938 6.8064 251.004 6.7093 251.081 6.5889C251.159 6.4685 251.229 6.37917 251.283 6.32091C251.342 6.26266 251.396 6.23547 251.454 6.23547C251.567 6.23547 251.85 6.42578 252.305 6.79863C252.759 7.17536 253.035 7.46277 253.136 7.66085C253.151 7.73076 253.144 7.80455 253.113 7.87446C253.027 8.02981 252.864 8.10749 252.623 8.10749H244.23C243.974 8.57744 243.671 9.05127 243.314 9.53287L244.654 10.2125H249.978L250.32 9.7659C250.363 9.70764 250.433 9.61831 250.534 9.49791C250.635 9.37751 250.724 9.31537 250.81 9.31537C250.922 9.31537 251.159 9.47072 251.524 9.78532C251.885 10.096 252.118 10.3446 252.215 10.531C252.258 10.6009 252.243 10.6747 252.173 10.7446C252.002 10.8573 251.746 10.9349 251.408 10.9777C251.392 12.0302 251.357 13.2924 251.303 14.7683H251.621L251.94 14.2129H251.936ZM245.908 19.6231C246.021 18.6444 246.122 17.5725 246.207 16.4073L246.293 15.4053H243.885L243.415 19.6231H245.908ZM246.355 14.7683C246.498 12.8497 246.58 11.5292 246.611 10.8068H244.331L243.97 14.7683H246.355ZM247.504 15.4053L247.077 19.6231H249.699C249.842 18.6289 249.955 17.2229 250.041 15.4053H247.504ZM250.083 14.7683C250.142 13.2342 250.176 11.9137 250.188 10.8068H247.846C247.803 11.5719 247.71 12.8924 247.57 14.7683H250.083Z" fill="#767674"/>
<path d="M258.43 22.0505C258.445 22.2214 258.449 22.3573 258.449 22.4544C258.449 22.5515 258.457 22.633 258.472 22.6874L258.492 22.7729C258.492 22.9166 258.375 23.0603 258.138 23.2079C257.905 23.3554 257.637 23.4331 257.338 23.4331C257.226 23.4331 257.121 23.3865 257.031 23.2933C256.942 23.2001 256.892 23.1069 256.892 23.0059C256.95 22.167 256.996 21.3553 257.039 20.5668C257.082 19.7784 257.109 18.7453 257.125 17.4675V10.1892C257.125 8.51522 257.047 7.13645 256.892 6.05674V6.01401C256.892 5.95575 256.911 5.9208 256.946 5.90915C256.981 5.8975 257.028 5.90138 257.086 5.92857L258.577 6.65097H270.846L271.188 6.20432C271.231 6.14606 271.285 6.07615 271.347 5.99071C271.413 5.90526 271.468 5.84312 271.518 5.8004C271.569 5.75768 271.619 5.73438 271.677 5.73438C271.806 5.73438 272.07 5.89361 272.478 6.21209C272.885 6.53057 273.134 6.79078 273.235 6.98886C273.278 7.05877 273.262 7.13256 273.192 7.20247C273.006 7.35783 272.738 7.47434 272.384 7.54425V17.6811C272.412 19.4561 272.47 21.0834 272.555 22.5593C272.555 22.6447 272.528 22.7146 272.47 22.7729C272.326 22.9166 272.14 23.0409 271.907 23.1457C271.674 23.2506 271.456 23.305 271.258 23.305C271.103 23.305 271.009 23.2001 270.982 22.9865C270.982 22.901 270.99 22.8311 271.006 22.7729C271.021 22.7146 271.025 22.6408 271.025 22.5476C271.025 22.4544 271.041 22.3379 271.068 22.1942V21.6194H258.437V22.0466L258.43 22.0505ZM263.968 13.6613V7.27238H258.43V13.6613H263.968ZM263.968 14.2556H258.43V21.0057H263.968V14.2556ZM271.064 13.6613V7.27238H265.335V13.6613H271.064ZM265.331 14.2556V21.0057H271.06V14.2556H265.331Z" fill="#767674"/>
<path d="M277.123 17.1763C277.158 17.1491 277.196 17.1336 277.239 17.1336C277.34 17.1336 277.394 17.1841 277.41 17.2811C277.581 18.1473 277.666 18.8774 277.666 19.4755C277.666 20.3416 277.542 20.9825 277.293 21.4019C277.045 21.8214 276.773 22.0311 276.474 22.0311C276.319 22.0311 276.19 21.9806 276.089 21.8835C275.988 21.7825 275.942 21.6505 275.942 21.4796C275.942 21.3242 276.004 21.1378 276.132 20.9242C276.416 20.5824 276.641 20.1008 276.804 19.4755C276.967 18.8502 277.057 18.1278 277.072 17.3045C277.072 17.2462 277.088 17.2074 277.126 17.1763H277.123ZM283.267 11.1485C283.294 11.1058 283.345 11.0359 283.414 10.9349C283.484 10.8339 283.55 10.7601 283.605 10.7097C283.663 10.6592 283.717 10.6359 283.776 10.6359C283.888 10.6359 284.129 10.7912 284.49 11.1058C284.851 11.4165 285.077 11.6651 285.162 11.8515C285.178 11.9214 285.17 11.9952 285.143 12.0651C285.057 12.2205 284.902 12.2982 284.673 12.2982H281.605V14.6401H283.395L283.713 14.2556C283.756 14.2129 283.822 14.1352 283.915 14.0226C284.009 13.91 284.098 13.8517 284.183 13.8517C284.312 13.8517 284.541 13.9915 284.875 14.2673C285.209 14.543 285.426 14.7761 285.523 14.9586C285.566 15.0285 285.551 15.1023 285.481 15.1722C285.31 15.2848 285.077 15.3625 284.778 15.4052C284.58 19.3823 284.059 21.7437 283.224 22.4972C282.797 22.8817 282.245 23.0875 281.562 23.1147C281.449 23.1147 281.391 23.0564 281.391 22.9438C281.364 22.6176 281.278 22.3807 281.135 22.2408C280.964 22.0855 280.579 21.9418 279.985 21.8136C279.884 21.7981 279.837 21.7437 279.837 21.6427V21.6C279.837 21.4718 279.896 21.4213 280.008 21.4524C281.03 21.5223 281.62 21.5573 281.775 21.5573C281.946 21.5573 282.078 21.5417 282.168 21.5146C282.261 21.4874 282.354 21.4369 282.455 21.367C282.995 20.8698 283.372 18.8308 283.585 15.2538H278.451V15.9335C278.451 16.0034 278.35 16.0966 278.152 16.2092C277.954 16.3218 277.717 16.3801 277.449 16.3801C277.348 16.3801 277.259 16.3335 277.181 16.2403C277.103 16.1471 277.064 16.0539 277.064 15.9529C277.161 14.7023 277.227 13.3118 277.255 11.7777V9.45517C277.255 7.78123 277.177 6.40246 277.022 5.32275V5.28002C277.022 5.18293 277.08 5.15186 277.192 5.19458L278.703 5.83542H283.049L283.453 5.28002C283.496 5.2373 283.554 5.15962 283.636 5.04699C283.713 4.93436 283.783 4.8528 283.838 4.80231C283.896 4.75182 283.95 4.72852 284.009 4.72852C284.137 4.72852 284.405 4.89552 284.817 5.22953C285.228 5.56355 285.477 5.82765 285.562 6.02961C285.578 6.09952 285.57 6.17331 285.543 6.24322C285.457 6.39858 285.294 6.47625 285.053 6.47625H281.605V8.73277H283.011L283.329 8.22011C283.372 8.1502 283.426 8.06863 283.5 7.97542C283.57 7.88221 283.628 7.8123 283.671 7.76181C283.713 7.71132 283.764 7.68802 283.818 7.68802C283.947 7.68802 284.191 7.84337 284.552 8.15796C284.914 8.46867 285.139 8.72112 285.224 8.90366C285.24 8.93085 285.244 8.96581 285.244 9.00853C285.244 9.10951 285.193 9.19107 285.096 9.25321C284.995 9.31924 284.875 9.35031 284.735 9.35031H281.605V11.6496H282.925L283.267 11.1369V11.1485ZM278.327 17.1336C278.327 17.0326 278.369 16.9782 278.455 16.9627H278.521C278.591 16.9627 278.649 16.9899 278.692 17.0481C279.329 17.9725 279.651 18.8658 279.651 19.7319C279.651 20.1436 279.581 20.4776 279.437 20.7339C279.294 20.9902 279.127 21.1184 278.925 21.1184C278.824 21.1184 278.703 21.0601 278.563 20.9475C278.505 20.8893 278.486 20.8193 278.497 20.7339C278.556 20.2523 278.583 19.8523 278.583 19.5416C278.583 18.7182 278.497 17.9298 278.327 17.1763V17.1336ZM280.436 8.74054V6.48402H278.455V8.74054H280.436ZM278.451 11.6573H280.432V9.35808H278.451V11.6573ZM280.436 12.2982H278.455V14.6401H280.436V12.2982ZM279.667 16.6209C279.764 16.5782 279.845 16.5859 279.9 16.6403C280.439 17.0947 280.832 17.5491 281.08 18.0035C281.329 18.458 281.453 18.8619 281.453 19.2192C281.453 19.4755 281.403 19.6814 281.306 19.8367C281.208 19.9921 281.08 20.0698 280.921 20.0698C280.836 20.0698 280.715 20.0193 280.56 19.9222C280.502 19.8639 280.474 19.794 280.474 19.7086C280.459 19.2969 280.369 18.823 280.199 18.291C280.028 17.7589 279.837 17.2734 279.624 16.8306C279.566 16.7296 279.581 16.6597 279.667 16.617V16.6209ZM280.968 16.1743L280.987 16.1548C281.045 16.1121 281.123 16.1043 281.22 16.1354C281.845 16.3762 282.304 16.6714 282.595 17.0209C282.886 17.3705 283.03 17.7006 283.03 18.0113C283.03 18.2094 282.979 18.3686 282.882 18.489C282.781 18.6094 282.661 18.6716 282.521 18.6716C282.436 18.6716 282.335 18.6366 282.222 18.5667C282.152 18.5395 282.109 18.4813 282.094 18.3958C282.008 18.0696 281.865 17.72 281.659 17.3511C281.453 16.9821 281.224 16.6636 280.968 16.3917C280.882 16.3063 280.882 16.2364 280.968 16.1781V16.1743ZM292.852 5.41596C292.895 5.3577 292.965 5.26449 293.066 5.12855C293.167 4.99262 293.256 4.92659 293.342 4.92659C293.454 4.92659 293.707 5.09748 294.099 5.43926C294.487 5.78104 294.736 6.04903 294.833 6.2471C294.876 6.30536 294.86 6.3675 294.79 6.43741C294.619 6.6083 294.363 6.71317 294.025 6.75589V9.1833C294.052 10.8728 294.111 12.3991 294.196 13.7624C294.196 13.8478 294.169 13.9177 294.111 13.976C293.967 14.0886 293.78 14.1974 293.547 14.2945C293.314 14.3954 293.112 14.442 292.942 14.442C292.813 14.442 292.72 14.3372 292.666 14.1236C292.666 14.0964 292.681 14.0226 292.709 13.91L292.751 13.6536V13.2497H289.512C289.967 15.3237 290.662 17.1607 291.598 18.7648C292.534 20.3688 293.691 21.5417 295.07 22.2797C295.14 22.3224 295.175 22.3729 295.175 22.4273C295.175 22.4816 295.159 22.5244 295.132 22.5554C295.105 22.5826 295.07 22.6059 295.027 22.6176C294.588 22.7457 294.266 23.0798 294.068 23.6196C294.01 23.7478 293.932 23.7672 293.835 23.6817C292.53 22.6603 291.505 21.2854 290.759 19.561C290.013 17.8365 289.462 15.7315 289.108 13.2458H287.83C287.772 15.448 287.504 17.421 287.023 19.1687C286.541 20.9164 285.632 22.435 284.296 23.7284C284.238 23.7866 284.16 23.7944 284.063 23.7517L284.02 23.7284C283.935 23.6584 283.919 23.573 283.978 23.472C285.015 22.0389 285.698 20.4232 286.032 18.625C286.366 16.8306 286.533 14.7178 286.533 12.2904V8.73277C286.533 7.43945 286.471 6.30536 286.343 5.32663V5.28391C286.343 5.24119 286.358 5.214 286.397 5.19846C286.432 5.18293 286.479 5.18293 286.537 5.19846L288.071 5.87814H292.545L292.864 5.40819L292.852 5.41596ZM287.823 6.50344V12.6166H292.743V6.50344H287.823Z" fill="#767674"/>
<path d="M305.611 13.8944C304.717 14.8732 303.871 15.6927 303.074 16.3452C302.973 16.4151 302.896 16.4112 302.841 16.3257L302.822 16.3063C302.752 16.2364 302.752 16.1587 302.822 16.0733C303.731 15.0208 304.675 13.7235 305.653 12.1739C306.007 11.6068 306.333 11.001 306.632 10.364C306.931 9.72706 307.156 9.12894 307.312 8.57355C307.327 8.46092 307.405 8.42596 307.545 8.46869C308.737 9.07845 309.335 9.47072 309.335 9.64161C309.335 9.69987 309.265 9.74259 309.122 9.76978L308.718 9.83192C308.322 10.4999 307.739 11.3233 306.97 12.3021L307.354 12.4729C307.413 12.5001 307.448 12.5351 307.459 12.57C307.475 12.605 307.467 12.6438 307.44 12.6866C307.327 12.7992 307.156 12.8769 306.927 12.9196V18.2444C306.954 20.0193 307.013 21.6466 307.098 23.1225C307.098 23.2079 307.071 23.2778 307.013 23.3361C306.884 23.4643 306.714 23.5808 306.5 23.6895C306.286 23.7944 306.073 23.8488 305.863 23.8488C305.735 23.8488 305.622 23.806 305.521 23.7206C305.42 23.6352 305.374 23.5342 305.374 23.4215C305.432 22.5826 305.479 21.7709 305.521 20.9825C305.564 20.1941 305.591 19.1609 305.607 17.8832V13.9022L305.611 13.8944ZM307.067 4.20421C307.118 4.18867 307.164 4.19644 307.207 4.22363L308.166 4.88388C308.69 5.10915 308.955 5.29557 308.955 5.43927C308.955 5.49753 308.877 5.54025 308.722 5.56744L308.337 5.61016C307.727 6.3481 306.958 7.12099 306.038 7.92106C305.113 8.72502 304.177 9.40081 303.226 9.9562C303.125 10.0145 303.039 9.99893 302.97 9.91348L302.95 9.89406C302.88 9.80862 302.892 9.73094 302.993 9.66103C303.533 9.17943 304.15 8.53859 304.845 7.7424C305.284 7.24527 305.7 6.68211 306.092 6.04904C306.484 5.41597 306.776 4.83728 306.978 4.31296C306.993 4.2547 307.024 4.21974 307.075 4.20809L307.067 4.20421ZM318.878 15.448C318.936 15.3781 318.994 15.2926 319.06 15.1916C319.126 15.0907 319.192 15.0091 319.262 14.9353C319.332 14.8615 319.398 14.8304 319.453 14.8304C319.565 14.8304 319.845 15.0169 320.295 15.3858C320.742 15.7548 321.018 16.0383 321.115 16.2364L321.138 16.3218C321.138 16.4345 321.084 16.5238 320.979 16.5898C320.874 16.652 320.742 16.6869 320.587 16.6869H315.899V21.5223C316.781 21.7631 317.872 21.8835 319.181 21.8835C320.49 21.8835 321.348 21.8758 321.884 21.8641C321.997 21.8641 322.055 21.9146 322.055 22.0117C322.055 22.0971 322.004 22.1593 321.907 22.202C321.752 22.2603 321.628 22.3729 321.534 22.5438C321.441 22.7147 321.383 22.905 321.352 23.1186C321.325 23.2312 321.259 23.2895 321.162 23.2895H319.033C317.654 23.2895 316.493 23.1225 315.549 22.7885C314.606 22.4545 313.802 21.868 313.141 21.033C312.481 20.1979 311.937 19.0289 311.51 17.5414C310.799 20.2523 309.65 22.3069 308.061 23.6973C307.976 23.7672 307.898 23.7672 307.828 23.6973L307.809 23.6779C307.739 23.608 307.739 23.5303 307.809 23.4448C308.873 22.1243 309.642 20.3494 310.108 18.1201C310.333 17.1957 310.45 16.116 310.45 14.8809C310.45 14.5974 310.434 14.2556 310.407 13.8595V13.8401C310.407 13.7274 310.469 13.6847 310.597 13.7119C311.933 13.9527 312.602 14.1508 312.602 14.31C312.602 14.3527 312.543 14.411 312.431 14.4809L312.069 14.6712C311.941 15.5101 311.805 16.2403 311.666 16.8656C312.019 17.9181 312.435 18.7764 312.912 19.4445C313.386 20.1125 313.953 20.629 314.606 20.998V16.5665C314.606 15.0208 314.528 13.6342 314.373 12.4147V12.372C314.373 12.2593 314.435 12.2244 314.563 12.2671C315.258 12.4652 315.74 12.6283 316 12.7565C316.264 12.8846 316.392 12.9973 316.392 13.0982C316.392 13.141 316.334 13.2031 316.221 13.2886L315.903 13.5022V16.0811H318.458L318.886 15.4635L318.878 15.448ZM319.561 10.9116C319.62 10.8417 319.678 10.7563 319.744 10.6553C319.81 10.5582 319.876 10.4728 319.946 10.399C320.016 10.3291 320.082 10.2941 320.136 10.2941C320.249 10.2941 320.528 10.4805 320.979 10.8573C321.426 11.234 321.701 11.5214 321.799 11.7195C321.814 11.7894 321.814 11.8632 321.799 11.9331C321.713 12.0884 321.542 12.1661 321.286 12.1661H312.427C311.518 12.1817 310.5 12.271 309.382 12.4419H309.32C309.261 12.4419 309.215 12.4069 309.172 12.337L308.788 11.5719C308.788 11.5719 308.768 11.5292 308.768 11.4864C308.768 11.4165 308.819 11.3816 308.916 11.3816C309.696 11.4515 310.562 11.502 311.514 11.5292H314.217V8.22789H312.811C311.961 8.24342 311.157 8.33275 310.403 8.50364H310.337C310.279 8.50364 310.232 8.46869 310.19 8.39878L309.828 7.63366C309.828 7.63366 309.809 7.59093 309.809 7.54821C309.809 7.4783 309.86 7.44335 309.957 7.44335C310.737 7.51326 311.603 7.56375 312.555 7.59093H314.217C314.217 6.51122 314.159 5.5053 314.046 4.56541C314.046 4.4217 314.116 4.3751 314.26 4.41782C314.928 4.6159 315.394 4.77902 315.654 4.90719C315.914 5.03535 316.047 5.14022 316.047 5.22566C316.047 5.29557 315.988 5.36936 315.876 5.43927L315.557 5.65289V7.59093H318.241L318.668 6.99282C318.711 6.93456 318.777 6.84523 318.87 6.72483C318.963 6.60443 319.037 6.5151 319.095 6.45685C319.154 6.39859 319.208 6.3714 319.266 6.3714C319.379 6.3714 319.655 6.55783 320.097 6.92679C320.536 7.29576 320.808 7.57928 320.905 7.77736C320.921 7.84727 320.913 7.92106 320.886 7.99097C320.8 8.14632 320.637 8.224 320.396 8.224H315.561V11.5253H319.138L319.565 10.9077L319.561 10.9116Z" fill="#767674"/>
<path d="M338.301 6.88781C338.371 6.80236 338.445 6.70915 338.515 6.61205C338.585 6.51107 338.658 6.42563 338.728 6.34407C338.798 6.26639 338.864 6.22755 338.919 6.22755C339.031 6.22755 339.326 6.42175 339.804 6.81402C340.278 7.20628 340.565 7.49757 340.666 7.69953C340.682 7.72672 340.686 7.76168 340.686 7.8044C340.686 7.90538 340.631 7.98694 340.527 8.04908C340.422 8.11511 340.29 8.14618 340.134 8.14618H334.34V11.063H340.068L340.538 10.4027C340.596 10.3328 340.67 10.2357 340.763 10.1153C340.857 9.9949 340.934 9.90168 340.996 9.83954C341.062 9.7774 341.121 9.74245 341.179 9.74245C341.307 9.74245 341.614 9.94052 342.096 10.3406C342.577 10.7367 342.876 11.0435 342.989 11.2572C343.004 11.3271 342.997 11.4009 342.969 11.4708C342.884 11.6261 342.713 11.7038 342.457 11.7038H327.865C326.956 11.7193 325.939 11.8087 324.82 11.9795H324.758C324.7 11.9795 324.653 11.9446 324.61 11.8747L324.226 11.1096C324.226 11.1096 324.207 11.0668 324.207 11.0241C324.207 10.9542 324.257 10.9193 324.354 10.9193C325.119 10.9892 325.966 11.0397 326.89 11.0668H328.23V10.193C328.23 8.6472 328.153 7.26066 327.997 6.04113V5.9984C327.997 5.88577 328.059 5.85082 328.187 5.89354C328.883 6.09162 329.36 6.25474 329.625 6.38291C329.889 6.51107 330.017 6.62371 330.017 6.72469C330.017 6.76741 329.959 6.82955 329.846 6.915L329.504 7.12861V11.0668H332.976V8.5734C332.976 7.02763 332.899 5.64109 332.743 4.42156V4.37883C332.743 4.2662 332.805 4.23125 332.934 4.27397C334.227 4.64294 334.872 4.91869 334.872 5.10512C334.872 5.17503 334.813 5.24882 334.701 5.31873L334.34 5.55176V7.53253H337.854L338.301 6.89169V6.88781ZM329.112 12.4689C329.162 12.4534 329.209 12.4611 329.252 12.4883L330.23 13.1292C330.77 13.3544 331.038 13.5331 331.038 13.6613C331.038 13.7312 330.961 13.7817 330.805 13.8088L330.421 13.8516C329.795 14.7177 328.968 15.6071 327.939 16.512C326.91 17.4208 325.826 18.1743 324.692 18.7685C324.591 18.8113 324.513 18.788 324.459 18.7064V18.6831C324.389 18.586 324.393 18.5044 324.478 18.4501C325.345 17.7704 326.183 16.9587 326.991 16.0226C327.418 15.5255 327.815 14.9662 328.184 14.3409C328.553 13.7156 328.828 13.1253 329.015 12.5738C329.03 12.5155 329.061 12.4806 329.112 12.4689ZM337.792 15.7469L338.709 16.4266C339.222 16.6674 339.474 16.8538 339.474 16.982C339.474 17.0674 339.381 17.1101 339.198 17.1101L338.771 17.1295C337.59 18.6054 336.328 19.7939 334.98 20.6872C333.633 21.5804 332.192 22.2601 330.665 22.7223C329.139 23.1845 327.368 23.5418 325.352 23.7981H325.31C325.224 23.7981 325.166 23.7476 325.139 23.6505L325.119 23.5845V23.5418C325.119 23.4564 325.17 23.3981 325.267 23.3709C327.283 22.9592 329.05 22.4466 330.572 21.8368C332.091 21.227 333.477 20.3959 334.724 19.3433C335.237 18.9161 335.769 18.3568 336.32 17.6616C336.876 16.9664 337.287 16.3489 337.555 15.809C337.625 15.6964 337.703 15.6731 337.788 15.7469H337.792ZM332.976 14.5545C332.976 13.502 332.926 12.6243 332.829 11.9135C332.829 11.7698 332.899 11.7232 333.042 11.7659C334.235 12.1349 334.833 12.4107 334.833 12.5971C334.833 12.6553 334.775 12.7175 334.662 12.7874L334.343 12.9777V17.3665C334.343 17.9646 334.219 18.4151 333.971 18.718C333.722 19.0249 333.202 19.2268 332.405 19.3239H332.363C332.293 19.3239 332.242 19.2734 332.215 19.1763C332.114 18.7918 331.974 18.5239 331.788 18.3685C331.489 18.1432 330.992 17.9801 330.296 17.8791C330.184 17.8519 330.126 17.7859 330.126 17.6888C330.126 17.6034 330.168 17.5607 330.254 17.5607C330.436 17.5607 330.65 17.5684 330.895 17.5801C331.135 17.5956 331.364 17.6073 331.574 17.6228C332.001 17.6655 332.328 17.6849 332.553 17.6849C332.708 17.6849 332.821 17.6578 332.883 17.5995C332.945 17.5412 332.98 17.4364 332.98 17.281V14.5545H332.976ZM336.759 13.1369C336.751 13.0864 336.759 13.0476 336.79 13.0204C336.833 12.9505 336.911 12.9272 337.023 12.9544C338.231 13.2962 339.225 13.704 340.006 14.1778C340.787 14.6555 341.35 15.1294 341.699 15.6032C342.049 16.0809 342.22 16.5004 342.22 16.8693C342.22 17.0829 342.166 17.2538 342.061 17.382C341.956 17.5102 341.808 17.5723 341.626 17.5723C341.513 17.5723 341.397 17.5451 341.284 17.4869C341.214 17.4713 341.163 17.4286 341.136 17.3587C340.783 16.6907 340.189 15.976 339.357 15.207C338.526 14.438 337.687 13.7855 336.833 13.2496C336.79 13.2224 336.767 13.1835 336.759 13.1331V13.1369Z" fill="#767674"/>
<path d="M346.418 22.1785C346.317 22.1785 346.271 22.0815 346.271 21.8795C346.271 21.6659 346.321 21.561 346.418 21.561H346.76C347.455 21.561 348.018 21.4562 348.442 21.2425C348.869 21.0289 349.082 20.6949 349.082 20.2405V10.0376C349.082 9.61038 349.044 9.32297 348.966 9.17539C348.888 9.0278 348.702 8.92682 348.411 8.87633C348.119 8.82584 347.575 8.80254 346.779 8.80254H346.418C346.317 8.80254 346.271 8.69767 346.271 8.48406C346.271 8.28598 346.321 8.185 346.418 8.185C347.257 8.185 348.007 8.06849 348.675 7.83546C349.343 7.60242 349.972 7.22957 350.57 6.7169C350.613 6.67418 350.648 6.65088 350.675 6.65088C350.745 6.65088 350.78 6.70137 350.78 6.79847V20.2366C350.78 21.1183 351.553 21.5571 353.102 21.5571H353.421C353.479 21.5571 353.518 21.5804 353.537 21.6309C353.557 21.6814 353.568 21.763 353.568 21.8756C353.568 22.0737 353.518 22.1747 353.421 22.1747H346.414L346.418 22.1785Z" fill="#767674"/>
<path d="M360.921 5.9519L361.966 6.50729C362.533 6.70536 362.816 6.86849 362.816 6.99665C362.816 7.05491 362.731 7.10152 362.56 7.14424L362.176 7.22969C361.535 8.49194 360.696 9.76196 359.651 11.032C358.606 12.302 357.453 13.3778 356.191 14.2595C356.105 14.3294 356.027 14.3177 355.958 14.2167C355.888 14.1158 355.892 14.0381 355.977 13.9837C357.154 12.8496 358.226 11.4476 359.193 9.78915C359.535 9.22211 359.838 8.60457 360.109 7.93655C360.377 7.26852 360.579 6.64322 360.708 6.06064C360.723 5.94801 360.793 5.91306 360.921 5.95578V5.9519ZM361.605 13.5953C360.797 13.6225 360.02 13.7157 359.282 13.8711H359.216C359.158 13.8711 359.111 13.8361 359.069 13.7662L358.665 13.0011C358.665 13.0011 358.645 12.9584 358.645 12.9157C358.645 12.8457 358.703 12.8108 358.816 12.8108C359.581 12.8807 360.443 12.9312 361.395 12.9584H369.341L369.683 12.5312C369.726 12.4884 369.8 12.403 369.908 12.2748C370.017 12.1467 370.11 12.0845 370.196 12.0845C370.308 12.0845 370.553 12.2399 370.93 12.5545C371.307 12.8652 371.543 13.1215 371.644 13.3196C371.687 13.405 371.664 13.4749 371.578 13.5332C371.423 13.6458 371.186 13.7235 370.875 13.7662C370.662 19.0483 370.114 22.1282 369.236 23.0098C368.739 23.5069 368.029 23.7749 367.108 23.8176C366.995 23.8176 366.937 23.7594 366.937 23.6468C366.91 23.2506 366.774 22.971 366.533 22.8156C366.362 22.703 366.094 22.5903 365.725 22.4855C365.357 22.3806 364.964 22.2913 364.553 22.2175C364.44 22.1903 364.382 22.1243 364.382 22.0272V21.9845C364.382 21.9262 364.401 21.8835 364.436 21.8563C364.471 21.8291 364.518 21.8213 364.576 21.8369C366.009 21.9922 366.988 22.0699 367.516 22.0699C367.714 22.0699 367.869 22.0544 367.986 22.0155C368.099 21.9806 368.199 21.9146 368.285 21.8136C368.596 21.5301 368.86 20.6562 369.073 19.192C369.287 17.7316 369.442 15.8635 369.543 13.5914H364.432C364.288 14.9391 364.013 16.182 363.601 17.32C363.189 18.4579 362.471 19.5842 361.449 20.7067C360.428 21.8291 359.006 22.8506 357.189 23.7749C357.088 23.8176 357.01 23.7943 356.956 23.7089L356.89 23.6235C356.89 23.6235 356.87 23.5885 356.87 23.5574C356.87 23.4875 356.94 23.4021 357.084 23.3011C358.618 22.334 359.803 21.3009 360.641 20.2018C361.48 19.1026 362.059 18.0229 362.378 16.9626C362.696 15.9062 362.894 14.7799 362.964 13.5876H361.62L361.605 13.5953ZM370.934 9.67652C372.111 10.8844 373.431 11.8476 374.895 12.5739C374.965 12.6166 375 12.6593 375 12.702C375 12.7603 374.985 12.803 374.957 12.8302C374.93 12.8574 374.891 12.8807 374.853 12.8962C374.627 12.9545 374.418 13.0671 374.223 13.238C374.033 13.4089 373.885 13.5992 373.788 13.8128C373.746 13.9255 373.676 13.9488 373.575 13.875C372.239 12.9079 371.066 11.735 370.048 10.3484C369.035 8.96577 368.269 7.48214 367.757 5.90917H366.246C365.31 5.93636 364.42 6.02957 363.582 6.18493H363.519C363.461 6.18493 363.415 6.14997 363.372 6.08006L362.987 5.33436L362.968 5.24892C362.968 5.17901 363.018 5.14405 363.116 5.14405C363.881 5.21396 364.743 5.26445 365.694 5.29164H367.271L367.827 4.44107C367.885 4.34009 367.963 4.32844 368.06 4.39835L369.551 5.46253C369.652 5.53244 369.679 5.5907 369.637 5.63342C369.423 5.84703 368.996 5.9752 368.359 6.01792C368.899 7.25299 369.757 8.4764 370.938 9.6804L370.934 9.67652Z" fill="#767674"/>
</svg>
